<?xml version="1.0" standalone="no"?>
<!DOCTYPE svg PUBLIC "-//W3C//DTD SVG 1.1//EN" "http://www.w3.org/Graphics/SVG/1.1/DTD/svg11.dtd" >
<svg xmlns="http://www.w3.org/2000/svg">
  <metadata>Created by iconfont</metadata>
  <defs>
  <font id="iconfont" horiz-adv-x="1024">
    <font-face
      font-family="iconfont"
      font-weight="400"
      font-stretch="normal"
      units-per-em="1024"
      ascent="896"
      descent="-128"
    />
      <missing-glyph />
      
      <glyph glyph-name="zichan-zhongduanshebei" unicode="&#59921;" d="M1137.777778 173.511111V829.44C1137.777778 866.133333 1112.291556 896 1080.888889 896H56.888889C25.486222 896 0 866.190222 0 829.44V173.511111a56.888889 56.888889 0 0 1 56.888889-56.888889h1024a56.888889 56.888889 0 0 1 56.888889 56.888889zM170.666667-14.222222m56.888889 0l682.666666 0q56.888889 0 56.888889-56.888889l0 0q0-56.888889-56.888889-56.888889l-682.666666 0q-56.888889 0-56.888889 56.888889l0 0q0 56.888889 56.888889 56.888889Z"  horiz-adv-x="1137" />
      
      <glyph glyph-name="delay_completed" unicode="&#59920;" d="M577.828571 318.171429c-7.314286 0-21.942857-7.314286-29.257142-7.314286h-219.428572c-21.942857 0-36.571429 14.628571-36.571428 36.571428s14.628571 36.571429 36.571428 36.571429H512V566.857143c0 21.942857 14.628571 36.571429 36.571429 36.571428s36.571429-14.628571 36.571428-36.571428v-219.428572c0-7.314286-7.314286-21.942857-7.314286-29.257142zM804.571429 91.42857100000003V201.14285700000005c0 21.942857 14.628571 36.571429 36.571428 36.571429s36.571429-14.628571 36.571429-36.571429V91.42857100000003h109.714285c21.942857 0 36.571429-14.628571 36.571429-36.571428s-14.628571-36.571429-36.571429-36.571429H877.714286v-109.714285c0-21.942857-14.628571-36.571429-36.571429-36.571429s-36.571429 14.628571-36.571428 36.571429V18.285713999999984H694.857143c-21.942857 0-36.571429 14.628571-36.571429 36.571429s14.628571 36.571429 36.571429 36.571428H804.571429z m219.428571 292.571429c0-21.942857-14.628571-36.571429-36.571429-36.571429S950.857143 362.057143 950.857143 384c0 241.371429-197.485714 438.857143-438.857143 438.857143S73.142857 625.371429 73.142857 384s197.485714-438.857143 438.857143-438.857143c21.942857 0 36.571429-14.628571 36.571429-36.571428s-14.628571-36.571429-36.571429-36.571429c-285.257143 0-512 226.742857-512 512s226.742857 512 512 512 512-226.742857 512-512z"  horiz-adv-x="1024" />
      
      <glyph glyph-name="zhuanqianwenjian" unicode="&#59114;" d="M170.66666667 475.02186667v-477.86666667h682.66666666V110.93333332999998h-68.26666666l101.376 113.77813334L989.86666667 110.93333332999998h-68.26666667v-182.0448H102.4v546.13333334h68.26666667z m568.88853333-273.06666667v-68.26666667H580.26666667v68.26666667h159.28853333z m0 136.53333333v-68.26666666H580.26666667v68.26666666h159.28853333zM785.06666667 839.11146667a136.53333333 136.53333333 0 0 0 136.53333333-136.53333334v-409.6h-68.26666667v409.6a68.26666667 68.26666667 0 0 1-64.26133333 68.15253334l-4.00533333 0.11413333H170.66666667V657.06666667h68.26666666l-103.424-113.77813334L34.13333333 657.06666667l68.26666667 0.0224V839.11146667h682.66666667zM534.7552 338.48853333v-68.26666666h-136.53333333a45.51146667 45.51146667 0 0 1-45.39733334-42.09706667l-0.11306666-3.41333333v-22.75626667h182.04373333v-68.26666667H284.4448v91.02293334a113.77813333 113.77813333 0 0 0 113.77706667 113.77706666h136.53333333zM512 657.06666667a136.53333333 136.53333333 0 1 0 0-273.06666667 136.53333333 136.53333333 0 0 0 0 273.06666667z m0-68.26666667a68.26666667 68.26666667 0 1 1 0-136.53333333 68.26666667 68.26666667 0 0 1 0 136.53333333z"  horiz-adv-x="1024" />
      
      <glyph glyph-name="waigoujiansaomiao" unicode="&#59903;" d="M136.4 748.8h68.7v-280.9h-68.7z m0-347.4h68.7V19h-68.7z m717.3 0H897V19h-43.3z m0 347.4H897v-280.9h-43.3zM0.1 456.3h1024V413H0.1z m752.4 292.5h33.3v-280.9h-33.3z m0-347.4h33.3V19h-33.3z m-69.2 0h33.3V19h-33.3z m0 347.4h33.3v-280.9h-33.3zM478.1 401.4h33.3V19h-33.3z m0 347.4h33.3v-280.9h-33.3z m-170.3 0h33.3v-280.9h-33.3z m0-347.4h33.3V19h-33.3z m-69.7 0h33.3V19h-33.3z m0 347.4h33.3v-280.9h-33.3z m308.7-347.4h102.4V19H546.8z m0 347.4h102.4v-280.9H546.8z m-171-347.4h68.4V19h-68.4z m0 347.4h68.4v-280.9h-68.4z"  horiz-adv-x="1024" />
      
      <glyph glyph-name="zhuangruguanxi" unicode="&#59904;" d="M877.625 274.13671875c-7.734375 0-14.0625 6.328125-14.0625 14.0625v67.67578125c0 46.58203125-37.79296875 84.375-84.375 84.375H554.1875c-7.734375 0-14.0625 6.328125-14.0625 14.0625v28.125c0 7.734375 6.328125 14.0625 14.0625 14.0625h70.3125c46.58203125 0 84.375 37.79296875 84.375 84.375V707.4375c0 46.58203125-37.79296875 84.375-84.375 84.375H399.5c-46.58203125 0-84.375-37.79296875-84.375-84.375v-126.5625c0-46.58203125 37.79296875-84.375 84.375-84.375h70.3125c7.734375 0 14.0625-6.328125 14.0625-14.0625v-28.125c0-7.734375-6.328125-14.0625-14.0625-14.0625H244.8125c-46.58203125 0-84.375-37.79296875-84.375-84.375v-67.67578125c0-7.734375-6.328125-14.0625-14.0625-14.0625-46.58203125 0-84.375-37.79296875-84.375-84.375v-115.13671875c0-46.58203125 37.79296875-84.375 84.375-84.375h84.375c46.58203125 0 84.375 37.79296875 84.375 84.375V189.76171875c0 46.58203125-37.79296875 84.375-84.375 84.375-7.734375 0-14.0625 6.328125-14.0625 14.0625v67.67578125c0 15.55664063 12.56835938 28.125 28.125 28.125h225c7.734375 0 14.0625-6.328125 14.0625-14.0625v-82.6171875c0-7.29492188-5.88867188-13.18359375-13.18359375-13.18359375h-0.87890625c-46.58203125 0-84.375-37.79296875-84.375-84.375v-115.13671875c0-46.58203125 37.79296875-84.375 84.375-84.375h84.375c46.58203125 0 84.375 37.79296875 84.375 84.375V189.76171875c0 46.58203125-37.79296875 84.375-84.375 84.375h-0.87890625c-7.29492188 0-13.18359375 5.88867188-13.18359375 13.18359375v82.6171875c0 7.734375 6.328125 14.0625 14.0625 14.0625h225c15.55664063 0 28.125-12.56835938 28.125-28.125v-67.67578125c0-7.734375-6.328125-14.0625-14.0625-14.0625-46.58203125 0-84.375-37.79296875-84.375-84.375v-115.13671875c0-46.58203125 37.79296875-84.375 84.375-84.375h84.375c46.58203125 0 84.375 37.79296875 84.375 84.375V189.76171875c0 46.58203125-37.79296875 84.375-84.375 84.375z m-646.875-56.25c15.46875 0 28.125-12.65625 28.125-28.125v-115.13671875c0-15.46875-12.65625-28.125-28.125-28.125H146.375c-15.46875 0-28.125 12.65625-28.125 28.125V189.76171875c0 15.46875 12.65625 28.125 28.125 28.125h84.375z m323.4375 0c15.46875 0 28.125-12.65625 28.125-28.125v-115.13671875c0-15.46875-12.65625-28.125-28.125-28.125h-84.375c-15.46875 0-28.125 12.65625-28.125 28.125V189.76171875c0 15.46875 12.65625 28.125 28.125 28.125h84.375zM399.5 552.75c-15.46875 0-28.125 12.65625-28.125 28.125V707.4375c0 15.46875 12.65625 28.125 28.125 28.125h225c15.46875 0 28.125-12.65625 28.125-28.125v-126.5625c0-15.46875-12.65625-28.125-28.125-28.125H399.5z m506.25-478.125c0-15.46875-12.65625-28.125-28.125-28.125h-84.375c-15.46875 0-28.125 12.65625-28.125 28.125V189.76171875c0 15.46875 12.65625 28.125 28.125 28.125h84.375c15.46875 0 28.125-12.65625 28.125-28.125v-115.13671875z"  horiz-adv-x="1024" />
      
      <glyph glyph-name="zaikuchaxun" unicode="&#59905;" d="M672.11-50.200000000000045c-42.57 0-83.93 13.34-119.06 38.82-44 31.92-72.95 79.06-81.5 132.74-8.55 53.69 4.32 107.48 36.24 151.49s79.06 72.95 132.74 81.5c53.68 8.55 107.48-4.32 151.49-36.24 44-31.92 72.95-79.06 81.5-132.74 17.65-110.82-58.16-215.34-168.98-232.99a205.358 205.358 0 0 0-32.43-2.58z m0.73 343.11c-7.38 0-14.81-0.58-22.24-1.77-75.97-12.1-127.94-83.75-115.84-159.72 5.86-36.8 25.7-69.12 55.87-91 30.17-21.88 67.05-30.7 103.85-24.84 75.97 12.1 127.94 83.75 115.84 159.72-5.86 36.8-25.7 69.12-55.87 91-24.07 17.46-52.43 26.61-81.61 26.61zM927.78-63.77999999999997c-6.51 0-13.09 1.98-18.76 6.1l-116.58 84.56c-14.31 10.38-17.49 30.39-7.12 44.69 10.38 14.31 30.38 17.49 44.69 7.12l116.58-84.56c14.31-10.38 17.49-30.39 7.12-44.69-6.26-8.63-16.03-13.22-25.93-13.22z m0.2 511.78c-6.81 0-13.67 2.16-19.49 6.64L512 759.63 115.51 454.64c-14.01-10.78-34.1-8.16-44.87 5.85-10.78 14.01-8.16 34.1 5.85 44.87l416 320c11.5 8.85 27.52 8.85 39.02 0l416-320c14.01-10.78 16.63-30.87 5.85-44.87-6.3-8.19-15.79-12.49-25.38-12.49zM344 176h-60c-5.52 0-10 4.48-10 10v60c0 5.52 4.48 10 10 10h60c5.52 0 10-4.48 10-10v-60c0-5.52-4.48-10-10-10z m0 128h-60c-5.52 0-10 4.48-10 10v60c0 5.52 4.48 10 10 10h60c5.52 0 10-4.48 10-10v-60c0-5.52-4.48-10-10-10zM344 432h-60c-5.52 0-10 4.48-10 10v60c0 5.52 4.48 10 10 10h60c5.52 0 10-4.48 10-10v-60c0-5.52-4.48-10-10-10z m130.5-128h-60c-5.52 0-10 4.48-10 10v60c0 5.52 4.48 10 10 10h60c5.52 0 10-4.48 10-10v-60c0-5.52-4.48-10-10-10z m0 128h-60c-5.52 0-10 4.48-10 10v60c0 5.52 4.48 10 10 10h60c5.52 0 10-4.48 10-10v-60c0-5.52-4.48-10-10-10z m130.5 0h-60c-5.52 0-10 4.48-10 10v60c0 5.52 4.48 10 10 10h60c5.52 0 10-4.48 10-10v-60c0-5.52-4.48-10-10-10zM491-64H192c-17.67 0-32 14.33-32 32V553c0 17.67 14.33 32 32 32s32-14.33 32-32v-553h267c17.67 0 32-14.33 32-32s-14.33-32-32-32zM832 322c-17.67 0-32 14.33-32 32V553c0 17.67 14.33 32 32 32s32-14.33 32-32v-199c0-17.67-14.33-32-32-32z"  horiz-adv-x="1024" />
      
      <glyph glyph-name="junjianjilubiao" unicode="&#59906;" d="M382.13636592-65.77087616999995v53.46232207h404.17515264a76.37474531 76.37474531 0 0 1 76.37474531 71.79226084V772.90020411a7.63747471 7.63747471 0 0 1-7.63747471 7.63747382h-129.8370665V834h190.93686328v-770.16293262a129.83706738 129.83706738 0 0 0-129.83706738-129.83706738zM107.64553115-65.77087616999995V704.16293262A129.83706738 129.83706738 0 0 0 237.48259854 834h403.8696536v-53.46232207H237.48259854a76.37474531 76.37474531 0 0 1-76.3747462-71.79226084v-713.569246a7.63747471 7.63747471 0 0 1 7.63747471-7.63747471h129.83706738v-53.46232206zM305.91437012 208.79633378999995h411.73625215v-53.46232119H305.91437012zM506.62720127 379.26476602h-99.28716944v-38.18737266h-26.65478584v38.18737266H269.71274112v24.05804414h110.97250487v26.96028573h-80.95723066v24.36354405a295.0356419 295.0356419 0 0 1 27.80040762 38.18737266h-43.30448086v23.5997956h57.73930752a304.12423653 304.12423653 0 0 1 15.27494941 29.40427706L382.59461445 537.28411435c-3.20773974-7.25560049-6.64460244-13.6710791-10.1578412-20.85030615h119.45010146v-23.82892031H359.07119317a323.98167041 323.98167041 0 0 0-25.43279064-38.18737266h47.04684346V482.67617138l26.50203633-1.06924657v-26.73116104h75.0763749v-24.36354404h-75.0763749v-26.96028486h99.28716944zM308.74023565 520.8635440400001h-26.73116104v50.86558038h213.8492874V520.8635440400001H468.89807714v27.11303438h-160.38696532zM602.55388144 441.51018369A214.61303496 214.61303496 0 0 1 590.02842324 459.76374727v-117.61710733h-23.52342217V454.34114092a328.41140537 328.41140537 0 0 0-22.5305499-45.82484736l-20.31568154 15.27494853a381.87372744 381.87372744 0 0 1 40.63136396 87.37270928h-26.12016299v25.58553925h28.33503047v47.58146631l23.52342217-1.0692457v-46.51222061h27.26578389v-22.91242323a203.61507099 203.61507099 0 0 1 56.13543808 72.4796332h21.07942911a244.39918535 244.39918535 0 0 1 80.1934831-90.12219961l-15.27494942-21.69042803c-8.32484707 6.18635479-16.03869698 12.29633438-22.91242323 18.71181299v-17.64256641H631.95815849v16.72606934c-4.50611016-3.97148643-9.31771934-7.63747471-15.27494941-12.5254582l-16.03869609 21.61405282c4.58248448 3.28411406 8.55397178 6.41547862 12.60183252 9.62321836h-23.21792227v-25.35641542l5.04073301 5.040733a221.48676211 221.48676211 0 0 0 23.82892031-28.33503047l19.24643584 6.18635391c7.17922617-18.48268828 17.64256641-53.46232207 22.91242413-73.24338076l-23.52342218-9.39409365a645.67209815 645.67209815 0 0 1-18.94093682 70.57026474z m147.86150713 20.31568154c-6.41547862-23.52342128-20.08655771-60.64154825-29.40427705-85.53971426h41.39511153v-25.66191444H604.99787276v25.66191445h89.51120156c11.53258682 28.10590664 23.52342128 65.22403271 32.07739306 93.02443944z m-109.90325917 38.18737266h88.21283115a199.56720938 199.56720938 0 0 0-44.37372657 58.04480654 214.30753594 214.30753594 0 0 0-43.83910458-57.73930752zM680.45612188 395.83808584c-4.27698545 18.94093682-13.36558008 52.39307549-19.24643584 68.73727061l22.4541747 6.64460243c5.65173105-15.73319795 15.27494942-48.87983672 19.55193486-67.89714872z"  horiz-adv-x="1024" />
      
      <glyph glyph-name="suojianjilubiao" unicode="&#59907;" d="M384.23750029-57.22500000000002v52.49999971h396.9a74.99999971 74.99999971 0 0 1 74.99999971 70.50000058V766.5a7.49999971 7.49999971 0 0 1-7.49999971 7.49999971h-127.50000029V826.50000029h187.49999971v-756.45a127.50000029 127.50000029 0 0 0-127.49999942-127.50000029zM114.83749971-57.22500000000002V699A127.50000029 127.50000029 0 0 0 242.3375 826.50000029h396.45v-52.50000058H242.3375a74.99999971 74.99999971 0 0 1-74.99999971-70.49999971V2.3999999999999773a7.49999971 7.49999971 0 0 1 7.49999971-7.49999971h127.50000029v-52.50000058zM309.3875 212.39999970999997h404.325v-52.49999971H309.3875zM316.3625 420.45c-3.375-35.17499971-11.25-51.975-24.67500029-79.57500029L267.3125 354.00000029c20.17500029 36.225 26.25000029 54.37500029 26.25000029 121.275V560.625A481.20000029 481.20000029 0 0 1 377.3375 576.15l6.075-26.25000029a383.55000029 383.55000029 0 0 0-65.40000029-13.12499971v-27.07499971h54.07500058v-89.25000029z m1.87499971 64.575v-10.50000029c0-10.72500029 0-20.475-0.52499971-29.09999971h29.99999971v39.6z m187.50000058-18.37500029H472.58749971v-121.05h-25.2V466.50000029H414.83750029c-1.27500029-58.5-9.675-86.10000029-43.27500058-126.82500029l-20.99999971 18.15000029c32.77500029 37.05000029 39.375 57.22499971 39.375 121.275V557.475a445.12499971 445.12499971 0 0 1 96.59999971 19.19999971l7.50000058-26.24999942A427.95 427.95 0 0 0 414.83750029 533.625v-40.95h91.125zM600.68750029 440.925a211.5 211.5 0 0 1-12.375 17.62499971v-115.57499942h-23.10000029V453.525a314.1 314.1 0 0 0-22.05-45l-19.95000029 15.00000029a375.00000029 375.00000029 0 0 1 39.90000058 85.79999971h-25.72500058V534.00000029h27.82500029v47.09999971l23.10000029-1.05000029V534.00000029h26.775v-22.5a199.125 199.125 0 0 1 55.19999971 71.1h20.7c16.80000029-34.65 43.875-63.225 78.75-88.425l-15.00000029-21.30000029c-8.17499971 6.075-15.75 12.07500029-22.5 18.37500029v-17.325H629.5625v16.875c-4.5-3.89999971-9.15000029-7.875-15.00000029-12.30000029l-15.75 21.22499971c4.42500029 3.15 8.39999971 6.3 12.375 9.45h-22.87499942v-24.89999942l5.02499971 4.725a216.74999971 216.74999971 0 0 0 23.32500029-27.82500029l18.97499971 6.075c7.04999971-18.15000029 17.325-52.49999971 22.5-72l-23.10000029-9.15000029a634.05 634.05 0 0 1-18.59999942 69.3z m145.19999971 19.95000029c-6.3-23.10000029-19.72500029-59.55000029-28.87499971-84.00000058h40.64999942v-25.2H603.08749971V376.50000029h87.90000029c11.32499971 27.60000029 23.10000029 64.05000029 31.5 91.35z m-107.92500029 37.49999942H724.58749971a195.00000029 195.00000029 0 0 0-43.57499942 57.00000058 209.25 209.25 0 0 0-43.05000058-56.7zM677.33749971 396.07500029c-4.20000029 18.60000029-13.12499971 51.45000029-18.9 67.5l22.05 6.525c5.55000029-15.45000029 15.00000029-47.99999971 19.20000058-66.67500058z"  horiz-adv-x="1024" />
      
      <glyph glyph-name="jiaofuzhuangtaichaxun" unicode="&#59908;" d="M665.96503467 202.6604168H654.49022363a257.3207543 257.3207543 0 0 1-30.74949228 116.54807695l-0.5249918 0.67498945a156.74741367 156.74741367 0 0 1-61.27398896 59.99900977 156.59741602 156.59741602 0 0 1 61.57398428 60.52400156v0.59998975c18.82468916 32.24946797 29.39951513 73.79878271 31.42448174 123.44796299h10.79982157a17.99970293 17.99970293 0 0 1 13.8747709 5.77490536 19.49967862 19.49967862 0 0 1 0 27.82454063 20.32466484 20.32466484 0 0 1-13.8747709 5.7749045H357.79511973a19.57467744 19.57467744 0 0 1-16.79972345-29.62451075 18.97468682 18.97468682 0 0 1 16.72472461-9.52484326H369.49492637c2.0249666-49.64918115 12.5997917-91.19849502 31.34948291-123.29796533l0.44999209-0.89998506a156.52241719 156.52241719 0 0 1 61.34898779-59.99901065 155.84742862 155.84742862 0 0 1-61.27398897-59.99900976l-0.44999209-0.67498857c-17.84970528-30.74949229-28.27453359-69.97384512-31.0494876-116.54807696h-11.09981688a19.57467744 19.57467744 0 0 1-19.7246751-19.34968096 17.99970293 17.99970293 0 0 1 5.84990331-13.87477089 20.39966367 20.39966367 0 0 1 13.87477179-5.84990333h307.49492636a19.57467744 19.57467744 0 0 1 13.8747709 5.84990333 19.49967862 19.49967862 0 0 1 0 27.89953945 21.14965107 21.14965107 0 0 1-14.17476621 4.72492178z m-172.49715352 165.37227187l0.82498624 0.37499326h1.42497597a4.87491943 4.87491943 0 0 1 2.24996309 1.72497217 2.99995049 2.99995049 0 0 1 1.2749792 1.42497598 2.39996075 2.39996075 0 0 1 0.67498857 1.12498154l0.44999297 0.67498857a3.44994346 3.44994346 0 0 1 0.82498623 1.64997335 8.17486523 8.17486523 0 0 1 0.82498623 3.22494696v3.74993789a6.59989072 6.59989072 0 0 1-0.74998741 2.99995049 2.47495958 2.47495958 0 0 1 0 1.04998272 6.44989395 6.44989395 0 0 1-0.97498388 1.49997481 2.32496191 2.32496191 0 0 1-0.7499874 1.12498154l-1.64997334 2.84995283a5.99990097 5.99990097 0 0 1-1.34997715 1.04998271 3.89993555 3.89993555 0 0 1-1.94996865 0.89998507h-0.89998506c-28.87452334 8.62485732-50.39916855 27.37454854-69.67384981 60.89899569l-0.52499179 0.67498858c-16.19973281 28.49953008-25.42458076 65.62391748-27.44954649 110.24818066h233.39614834c-1.64997247-43.72427812-10.94981924-80.92366435-27.44954648-109.49819326l-0.82498711-0.97498388c-19.27468213-33.44944834-40.64932969-52.49913398-69.07386006-60.89899483h-1.19998037a3.07494932 3.07494932 0 0 1-1.42497598 0 13.49977763 13.49977763 0 0 1-2.24996308-1.64997246l-1.87496895-1.94996778a2.62495635 2.62495635 0 0 1-0.67498857-1.19998036v-0.37499415l-0.5249918-0.67498857a2.09996543 2.09996543 0 0 1-0.59998974-0.82498623 19.64967539 19.64967539 0 0 1-0.74998829-2.24996309 2.77495401 2.77495401 0 0 1 0-1.34997802v-3.37494375a2.0249666 2.0249666 0 0 1 0-0.97498389l0.74998829-2.24996309a3.52494141 3.52494141 0 0 1 0.7499874-1.19998036 7.49987666 7.49987666 0 0 1 0.7499874-1.12498155 2.92495166 2.92495166 0 0 1 0.74998741-1.19998037 2.92495166 2.92495166 0 0 1 1.42497685-1.57497363 5.549908 5.549908 0 0 1 1.42497685-1.12498154 3.07494932 3.07494932 0 0 1 1.7249713-0.82498624l1.4999748-0.7499874c28.94952217-9.14984912 50.32416972-27.89953945 69.22385771-60.74899805l0.44999297-0.89998505a190.12186318 190.12186318 0 0 0 19.79967304-50.7741627c0-1.12498154 0.52499092-2.47495958 0.89998507-4.12493115a211.27151426 211.27151426 0 0 0 4.12493203-23.47461299c-19.49967862 12.29979727-59.99900977 20.6996581-107.32322901 22.04963613V402.75711533l0.67498858 0.59999063h1.87496982a119.99802041 119.99802041 0 0 1 49.04919052 28.79952451 139.19770283 139.19770283 0 0 1 31.87447383 50.17417207 13.42477881 13.42477881 0 0 1-12.44979492 17.77470644 11.54980987 11.54980987 0 0 1-5.02491709-1.19997948 12.29979727 12.29979727 0 0 1-6.74988838-7.49987667A111.67315752 111.67315752 0 0 0 553.01689795 451.50631143a95.47342471 95.47342471 0 0 0-38.32436777-22.49962911l-0.97498389-0.59998974h-0.74998741l-1.79997011 0.59998974a94.12344668 94.12344668 0 0 0-38.32436778 22.49962911 116.99806992 116.99806992 0 0 0-26.09956933 40.42433232 11.69980664 11.69980664 0 0 1-6.89988603 7.49987666 11.62480781 11.62480781 0 0 1-5.09991592 1.19998037 9.89983653 9.89983653 0 0 1-4.64992295-1.04998271 11.62480781 11.62480781 0 0 1-7.49987666-6.82488721 11.39981221 11.39981221 0 0 1 0-9.97483535 142.49764864 142.49764864 0 0 1 31.799475-50.0241753 117.82305615 117.82305615 0 0 1 49.04919141-28.87452334h0.59998974l2.24996309-0.97498388v-152.2474875c-44.62426406 0-84.5986043-7.04988369-107.24823018-18.07470176a194.32179404 194.32179404 0 0 0 4.79992061 23.92460508 188.69688633 188.69688633 0 0 0 19.87467187 49.87417676v0.67498857c19.57467744 33.14945302 41.09932177 51.97414219 69.97384512 60.97399453zM511.992575 834a449.992575 449.992575 0 1 1 159.22237325-871.03562783 31.42448174 31.42448174 0 0 1-11.0998169 61.04899247 30.97448877 30.97448877 0 0 1-11.0998169-2.02496659A387.29361006 387.29361006 0 1 0 846.63705342 189.01064239000004a31.27448408 31.27448408 0 0 1-3.22494698-23.84960626 30.89948994 30.89948994 0 0 1 14.54976036-19.12468447 31.42448174 31.42448174 0 0 1 42.89929189 11.24981455A449.992575 449.992575 0 0 1 511.992575 834zM784.16308408 55.13785107000001m-41.24931943 0a41.24931943 41.24931943 0 1 1 82.49863887 0 41.24931943 41.24931943 0 1 1-82.49863887 0Z"  horiz-adv-x="1024" />
      
      <glyph glyph-name="guidangmuluchaxun" unicode="&#59909;" d="M925.90767556 21.924336820000008l-48.31029052 48.38071399a153.80419071 153.80419071 0 1 1-36.76089221-39.08485656l47.11309743-47.11309663a26.83122528 26.83122528 0 1 1 37.9580853 38.02850876zM748.86384048 253.68697026999996a99.86004712 99.86004712 0 1 0-99.86004629-99.78962366 99.93046975 99.93046975 0 0 0 99.86004629 99.78962367zM394.42405548 13.614403739999943zM302.45140314 747.84631292h419.01782684a29.01434353 29.01434353 0 0 1 0 58.02868708h-419.01782684a29.01434353 29.01434353 0 1 1 0-58.02868708zM223.92957517 643.12706753h576.20232889a29.01434353 29.01434353 0 1 1 0 57.95826444H223.92957517a29.01434353 29.01434353 0 0 1 0-57.95826444zM854.56901022 596.36608657h-685.21738732A79.36690622 79.36690622 0 0 1 90.1255636 517.14002728v-475.70847391a79.36690622 79.36690622 0 0 1 79.2260593-79.22605928h425.28548857a8.94374177 8.94374177 0 0 1 2.394387 0 28.73265134 28.73265134 0 0 1 0.98592435 57.04276272 10.63389743 10.63389743 0 0 1-3.38031135 0.63380869H179.77425159a31.62000091 31.62000091 0 0 0-31.62000091 31.62000008V506.71739858A31.62000091 31.62000091 0 0 0 179.77425159 538.26697605h669.02005865a27.04249484 27.04249484 0 0 0 27.04249567-27.04249485v-204.79056125a8.5916261 8.5916261 0 0 1 0.56338522-3.02819568 28.73265134 28.73265134 0 0 1 57.25403229 0.98592353 9.57755045 9.57755045 0 0 1 0 2.04227215V517.14002728a79.29648276 79.29648276 0 0 1-79.08521319 79.22605929zM574.00312449 301.08175909H332.31082492a18.73256177 18.73256177 0 1 0 0 37.46512353h241.69229957a18.73256177 18.73256177 0 1 0 0-37.46512353z m-70.42316447-112.32494632H332.16997883a18.73256177 18.73256177 0 1 0-1e-8 37.46512354h171.2691351a18.73256177 18.73256177 0 1 0 0-37.46512354z m70.42316447 224.1569317H332.16997883a18.80298523 18.80298523 0 0 0-1e-8 37.53554618h241.69229874a18.80298523 18.80298523 0 0 0 0-37.53554618zM246.18329519 404.46296448A26.69037918 26.69037918 0 1 0 273.22579003 431.22376712a26.61995572 26.61995572 0 0 0-27.04249484-26.76080264z m0-224.15693171A26.69037918 26.69037918 0 1 0 273.22579003 207.27810497999997a26.61995572 26.61995572 0 0 0-27.04249484-26.83122528z m0 112.25452368A26.69037918 26.69037918 0 1 0 273.22579003 319.39178257000003a26.69037918 26.69037918 0 0 0-27.04249484-26.69038001z"  horiz-adv-x="1024" />
      
      <glyph glyph-name="guidangshenqing" unicode="&#59910;" d="M302.47109778 747.8407766400001h419.05780444a29.01711209 29.01711209 0 0 1 0 58.03422336h-419.05780444a29.01711209 29.01711209 0 1 1 0-58.03422336zM854.64138156 596.34609778h-685.28276312A79.30404849 79.30404849 0 0 1 90.125 517.1124793399999v-475.7538609a79.30404849 79.30404849 0 0 1 79.23361844-79.23361844h685.28276312a79.30404849 79.30404849 0 0 1 79.23361844 79.23361844V517.1124793399999a79.37447855 79.37447855 0 0 1-79.23361844 79.23361844zM148.15922336 506.68885611A31.62301748 31.62301748 0 0 0 179.78224084 538.2414443600001h669.08389033a27.04507553 27.04507553 0 0 0 27.0450747-27.04507552v-459.48455722a31.62301748 31.62301748 0 0 0-31.62301749-31.62301749H179.78224084a31.62301748 31.62301748 0 0 0-31.62301748 31.62301748zM223.94177823 643.11153974h576.25730365a29.01711209 29.01711209 0 0 1 0 57.96379412H223.94177823a29.01711209 29.01711209 0 0 1-1e-8-57.96379412zM577.42936169 300.04757949h-37.60955805v42.25793006a29.22840143 29.22840143 0 0 1-58.45680285 0V270.60788791000004a29.29883149 29.29883149 0 0 1 29.22840143-29.22840144h66.83795947a29.22840143 29.22840143 0 0 1 0 58.45680286zM446.35934897 241.59077663999994h37.60955722v-42.25793006a29.22840143 29.22840143 0 1 1 58.45680367 0V270.60788791000004a29.36926153 29.36926153 0 0 1-29.22840225 29.22840142h-66.83795864a29.22840143 29.22840143 0 1 1 0-58.45680286zM512 476.33357712a200.79559698 200.79559698 0 1 1 200.72516692-200.72516693 200.93645627 200.93645627 0 0 1-200.72516692 200.72516693z m144.45168997-200.72516693A144.52212002 144.52212002 0 1 0 512 420.06010016a144.66298013 144.66298013 0 0 0 144.45168997-144.45168997z"  horiz-adv-x="1024" />
      
      <glyph glyph-name="qitaoxingjiancha" unicode="&#59911;" d="M512.03318723 748.46123777a46.46200424 46.46200424 0 0 1-46.46200424-46.46200508l92.52576259 1.52660908a46.46200424 46.46200424 0 0 1-46.06375835 44.935396z m-152.66087155-102.21641016a28.74006876 28.74006876 0 0 0-1e-8 57.41376306h49.05060206a103.80939285 103.80939285 0 0 0 207.4860368 0h48.91785315a28.74006876 28.74006876 0 1 0 0-57.41376306h-305.32174393zM172.59505804-37.875A47.98861331 47.98861331 0 0 0 124.73919363 9.980864409999981V656.8647141700001a47.98861331 47.98861331 0 0 0 47.92223887 47.98861332h99.56143789a28.74006876 28.74006876 0 1 0 0-57.41376224H182.08658143v-628.09992553h659.8932116V647.43956525H753.56923566a28.74006876 28.74006876 0 1 0 0 57.48013668h97.76933184a48.05498777 48.05498777 0 0 0 47.92223887-47.98861331v-646.88384975a47.92223887 47.92223887 0 0 0-47.78948996-47.92223887H172.59505804z m189.7641005 143.56759324a19.38129346 19.38129346 0 0 0-13.87222723 5.77456401l-39.22720643 39.22720643a19.91228742 19.91228742 0 0 0 27.87720254 27.67808001l25.35498002-25.35498002 64.58218561 64.58218645a19.91228742 19.91228742 0 1 0 27.74445446-27.74445447l-78.58716174-78.3880384a19.91228742 19.91228742 0 0 0-13.87222723-5.77456401zM715.47039243 144.91980047000004H519.2016106a19.91228742 19.91228742 0 0 0 0 39.22720643H715.47039243a19.91228742 19.91228742 0 0 0 0-39.22720642zM362.35915854 262.60141974a19.91228742 19.91228742 0 0 0-13.87222723 5.64181513l-39.22720643 39.29358087A19.91228742 19.91228742 0 0 0 337.13692742 335.28126938l25.35498002-25.35497919L426.94134497 374.44210217a19.91228742 19.91228742 0 1 0 27.74445364-27.74445446L376.23138577 268.24323487000004a19.91228742 19.91228742 0 0 0-13.87222723-5.64181513zM715.47039243 301.82862616H519.2016106a19.91228742 19.91228742 0 0 0 0 39.22720724H715.47039243a19.91228742 19.91228742 0 0 0 0-39.22720723zM362.35915854 419.44387179a19.38129346 19.38129346 0 0 0-13.87222723 5.7745632l-39.22720643 39.22720725a19.91228742 19.91228742 0 1 0 27.87720255 27.74445364l25.35498001-25.35497918 64.58218561 64.58218562a19.91228742 19.91228742 0 1 0 27.74445446-27.74445366L376.23138577 425.21843499a19.91228742 19.91228742 0 0 0-13.87222723-5.7745632zM715.47039243 458.67107822H519.2016106a19.91228742 19.91228742 0 0 0 0 39.22720724H715.47039243a19.91228742 19.91228742 0 0 0 0-39.22720724z"  horiz-adv-x="1024" />
      
      <glyph glyph-name="yiqixiaozhunshenqing" unicode="&#59912;" d="M734.91142256 340.24606670000003a215.93769697 215.93769697 0 0 1-209.91976084 197.17589707v23.36375038h-18.83259932v-23.71774657a216.07929492 216.07929492 0 0 1-201.56545019-196.82190088h-28.31969796v-18.76179989h27.54090616a215.93769697 215.93769697 0 0 1 207.15859073-215.79609816v-18.83259931h18.7617999v18.83259931A216.07929492 216.07929492 0 0 1 736.11500908 321.48426681h28.31969795v18.76179989z m-205.31781035-199.583071v68.60446787h-18.19540547v-68.60446787C411.9960667 144.91095000999997 332.55931396 224.20610479000004 332.55931396 321.48426681h62.65733203V338.40528632999997h-61.59534345c8.56670889 87.86186279 81.91472607 157.38672129 173.24575225 163.40465742v-55.50660791h17.84140927v56.14380089C619.72105098 500.03996192 697.10462598 429.02832012 705.88373222 338.40528632999997h-60.81655165v-17.20421631h61.66614199c0-96.64096903-78.65796094-175.72372559-177.49370654-180.53807432zM613.70311484 415.36406572V246.36626778000004H576.10871651V330.90056602000004L538.51431729 246.36626778000004h-37.52359981l-37.59439922 84.53429824V246.36626778000004h-37.5235998V415.36406572h37.5235998l56.35619913-126.73064882 56.35619912 126.73064883h37.59439833zM349.05553789 663.7278161199999h325.67652597a30.65607334 30.65607334 0 1 1 1e-8 61.24134726H622.83621817a110.73001904 110.73001904 0 0 1-221.38923867 0h-52.39144161a30.65607334 30.65607334 0 0 1 0-61.24134726z m162.83826298 109.0308375a49.55947119 49.55947119 0 0 0 49.13467647-47.93108907l-98.69414765-1.62838301a49.55947119 49.55947119 0 0 0 49.70107002 49.55947208zM769.67385137 665.0022029300001h94.30459453v-441.71648876h61.09974756V675.12649453a51.25865362 51.25865362 0 0 1-51.11705479 51.1878542H769.67385137a30.65607334 30.65607334 0 1 1 0-61.3121458zM634.51809335-4.971050969999965h-474.35494043V665.0022029300001h95.86217726a30.65607334 30.65607334 0 1 1 0 61.24134639h-106.1988671A51.1878542 51.1878542 0 0 1 98.92180654 675.05569511v-690.00943974a51.1878542 51.1878542 0 0 1 51.04625537-51.04625537h484.55003144zM634.51809335-35.343926659999966m-30.37287655 0a30.37287568 30.37287568 0 1 1 60.74575223 0 30.37287568 30.37287568 0 1 1-60.74575223 0ZM894.70531778 223.28571417m-30.37287569 0a30.37287568 30.37287568 0 1 1 60.74575137 0 30.37287568 30.37287568 0 1 1-60.74575137 0ZM865.32363125 85.86438018000001h-37.80679658v42.47954648a29.38168653 29.38168653 0 0 1-58.76337305 0v-71.93203242a29.45248594 29.45248594 0 0 1 29.38168653-29.52328535h67.1884831a29.38168653 29.38168653 0 1 1 0 58.76337392zM733.56623633 26.888608869999985H771.51463174v-42.47954647a29.45248594 29.45248594 0 1 1 58.83417246 0v72.07363125a29.52328535 29.52328535 0 0 1-29.45248594 29.38168653h-67.33008193a29.38168653 29.38168653 0 1 1 0-58.76337305z"  horiz-adv-x="1024" />
      
      <glyph glyph-name="yiqixiaozhundan" unicode="&#59913;" d="M511.28157325 771.26501396a49.48427901 49.48427901 0 0 1-49.40941554-49.484279l98.44451807 1.57211807a49.48427901 49.48427901 0 0 1-49.03510253 47.91216093zM348.60481455 662.41457285a30.54400224 30.54400224 0 0 0 0 61.08800538h52.40392558a110.49742178 110.49742178 0 0 0 220.99484268 0h52.40392647a30.54400224 30.54400224 0 0 0 0-61.08800538H348.60481455zM149.91907168-66A51.05639619 51.05639619 0 0 0 98.93753721-15.018466409999974v688.73731524a50.98153359 50.98153359 0 0 0 50.98153447 51.05639619H256.14931573a30.61886572 30.61886572 0 1 0-1e-8-61.16286797H160.02554258v-668.74896035H862.53760391V663.61237705H768.43512529a30.61886572 30.61886572 0 0 0 0 61.23773144h104.13408779a51.13125967 51.13125967 0 0 0 50.9815336-51.13125966v-688.73731524a50.90667099 50.90667099 0 0 0-50.906671-50.90667099H149.91907168zM737.81625957 341.47795664a228.25652959 228.25652959 0 0 1-221.96805821 208.41790078v24.77957081H495.71012129v-25.15388468a228.40625479 228.40625479 0 0 1-212.90966543-208.04358691h-29.94510058v-19.83862881h29.12161024A228.33139219 228.33139219 0 0 1 500.95051367 93.38279824000006v-19.83862881h19.91349229V93.45766084000002a228.40625479 228.40625479 0 0 1 217.85060654 228.18166699h29.94510058v19.83862881zM520.26510342 130.43986055000005v72.54200567h-18.79055069v-72.61686914c-104.80785205 4.49176552-188.87872237 88.41290977-188.87872236 191.27433075h66.32839864v18.19164902h-65.43004571c9.05839277 92.82981182 86.61620391 166.34503388 183.18915352 172.78323047v-58.69239696h18.86541328v59.06671083C616.01456269 510.4431876 697.83955068 435.58043613 707.12253125 339.83097684999996h-64.30710323v-18.19164902h65.20545704c0-102.48710713-83.24737998-186.18366357-187.75578164-191.19946728zM609.65122871 420.90733623v-178.69738799h-39.7521211V331.52121093999995L530.14698653 242.20994824000002h-39.67725762L450.71760693 331.52121093999995v-89.3112627h-39.67725761V420.90733623h39.67725761l59.59075078-134.0791875 59.5907499 134.0791875h39.7521211z"  horiz-adv-x="1024" />
      
      <glyph glyph-name="guidangxiangbiaotouxiugai" unicode="&#59914;" d="M870.3989624-37.875H149.74314728a63.70594546 63.70594546 0 0 0-59.45888205 67.88222452V737.78028067A58.6094697 58.6094697 0 0 0 90.28426523 746.4159754 63.70594546 63.70594546 0 0 0 153.9902107 805.87485828h720.72659866a63.70594546 63.70594546 0 0 0 59.31731415-67.74065579v-707.84384052a58.6094697 58.6094697 0 0 0 0-8.63569473 63.70594546 63.70594546 0 0 0-63.70594546-59.45888288zM158.37884202 528.32928855a2.83137533 2.83137533 0 0 1-2.83137535-2.83137534v-495.49068869a2.83137533 2.83137533 0 0 1 2.83137535-2.83137534h707.84384133a2.83137533 2.83137533 0 0 1 2.83137534 2.83137534v495.49068869a2.83137533 2.83137533 0 0 1-2.83137534 2.83137534z m283.13753686 212.35315182a2.83137533 2.83137533 0 0 1-2.83137534-2.83137533v-141.56876761a2.83137533 2.83137533 0 0 1 2.83137534-2.83137534h424.70630447a2.83137533 2.83137533 0 0 1 2.83137534 2.83137534v141.56876761a2.83137533 2.83137533 0 0 1-2.83137534 2.83137533zM317.43135382 23.424276299999974H706.10840693a17.69609565 17.69609565 0 0 0-1e-8-35.3921921H317.43135382a17.69609565 17.69609565 0 1 0 1e-8 35.3921921z m264.87516468 363.47781254L607.01026853 411.88897632l65.40477099-65.47555536-24.91610312-24.98688749z m-211.8576613-176.96095971l24.98688749 24.98688747 80.05713822-79.7032164-24.98688749-24.98688831zM412.4239967 106.02965322l276.4838043 276.41301994-49.5490688 49.97377496-276.8377261-276.48380429-7.07843874-57.2645668zM329.03999262 172.35462095000003L614.08870727 457.33255124a35.39219211 35.39219211 0 0 0 49.97377496 0l49.97377498-49.54906879a35.39219211 35.39219211 0 0 0 0-49.9029906L428.91675818 72.54863891000002l-114.5291336-14.65236721z"  horiz-adv-x="1024" />
      
      <glyph glyph-name="PDFxiugai" unicode="&#59915;" d="M654.73437527 512.32031223V687.75a5.62500027 5.62500027 0 0 1-5.62500027 5.62500027H115.2265625a5.62500027 5.62500027 0 0 1-5.62500027-5.62500027v-175.78124973a5.62500027 5.62500027 0 0 1 5.62500027-5.62500027h533.8828125a5.62500027 5.62500027 0 0 1 5.62500027 5.97656223zM322.43749973 596.13281277a34.73437527 34.73437527 0 0 0-24.53906223-7.52343777h-15.04687473v-27.28124973a5.62500027 5.62500027 0 0 0-5.62500027-5.62500027h-16.2421875a5.62500027 5.62500027 0 0 0-5.62500027 5.62500027v77.34374946a5.62500027 5.62500027 0 0 0 5.62500027 5.62500027h39.8671875a30.796875 30.796875 0 0 0 22.50000027-7.03124973 26.22656223 26.22656223 0 0 0 7.45312473-20.0390625 27.49218723 27.49218723 0 0 0-8.36718777-21.09375z m101.32031304-17.78906304a37.7578125 37.7578125 0 0 0-9.00000027-13.21874946 29.39062473 29.39062473 0 0 0-12.51562473-7.03125054 64.546875 64.546875 0 0 0-16.31250054-2.46093696h-35.15624946a5.62500027 5.62500027 0 0 0-5.62500027 5.62499946v77.34375027a5.62500027 5.62500027 0 0 0 5.62500027 5.62500027h35.15624946a48.23437527 48.23437527 0 0 0 19.40625-3.23437554 32.55468723 32.55468723 0 0 0 12.234375-9.4921875 38.74218777 38.74218777 0 0 0 7.03125054-14.06249946 68.1328125 68.1328125 0 0 0 2.17968723-16.875 57.23437473 57.23437473 0 0 0-3.30468777-22.00781304z m85.21875 52.59375054a5.62500027 5.62500027 0 0 0-5.62500027-5.62500027h-28.96874973a5.62500027 5.62500027 0 0 1-5.62500027-5.62500027v-4.21875a5.62500027 5.62500027 0 0 1 5.62500027-5.62499946h23.06249973a5.62500027 5.62500027 0 0 0 5.62500027-5.62500027v-6.46875027a5.62500027 5.62500027 0 0 0-5.62500027-5.62499946h-23.06249973a5.62500027 5.62500027 0 0 1-5.62500027-5.62500027v-25.03125027a5.62500027 5.62500027 0 0 0-5.62500027-5.62499946H447.10156223a5.62500027 5.62500027 0 0 0-5.62499946 5.62499946v77.34375027A5.62500027 5.62500027 0 0 0 447.10156223 644.15624973h56.25000027a5.62500027 5.62500027 0 0 0 5.62500027-5.62499946zM290.65625027 626.29687527h-7.8046875v-19.75781277h6.67968696a16.73437473 16.73437473 0 0 1 11.25000054 2.81249973 8.71874973 8.71874973 0 0 1 3.23437473 7.03125054 9.77343723 9.77343723 0 0 1-2.7421875 7.03124973 14.06250027 14.06250027 0 0 1-10.61718723 2.88281277z m88.8046875-2.03906277h-7.03125054v-48.44531277h7.03125054a29.109375 29.109375 0 0 1 12.234375 1.96875054 12.65625 12.65625 0 0 1 5.62499946 6.60937473 42.1875 42.1875 0 0 1 2.03906277 15.3984375 29.953125 29.953125 0 0 1-4.57031277 19.26562473 19.26562473 19.26562473 0 0 1-15.32812446 5.20312527zM164.65624973-37.875V466.12499973h67.42968777v-425.25a11.390625 11.390625 0 0 1 11.10937527-11.390625h499.21874946a11.1796875 11.1796875 0 0 1 7.94531277 3.30468777 5.34374973 5.34374973 0 0 1 0.77343777 0.98437527l92.8125 147.65625a11.74218777 11.74218777 0 0 1 2.81249973 7.03124973V727.12500027a11.390625 11.390625 0 0 1-11.390625 11.32031196H164.65624973V805.875h749.74218804v-649.96874973l-0.56250027-0.6328125L775.17968777-37.875zM329.60937473 9.5859375h385.87500054a17.57812473 17.57812473 0 1 0 0-35.15625027H329.60937473a17.57812473 17.57812473 0 0 0-15.1875 8.78906277 17.57812473 17.57812473 0 0 0 15.1875 26.3671875z m263.10937554 360.98437473l24.82031196 24.82031277 64.96875-65.03906223L658.03906223 305.53125z m-210.515625-175.78124973l24.890625 24.890625 79.5234375-79.24218777-24.82031277-24.74999973zM423.96875027 91.57031276999999l274.640625 274.57031196-49.64062554 49.64062554-274.640625-274.640625-7.03124973-56.88281277z m-82.8984375 65.95312446L624.14843777 440.25000027a35.15625027 35.15625027 0 0 0 49.64062473 0l49.5703125-49.21875054a35.15625027 35.15625027 0 0 0 0-49.5703125L440.0703125 58.3125l-113.83593777-14.5546875z"  horiz-adv-x="1024" />
      
      <glyph glyph-name="guidangmulushanchu" unicode="&#59916;" d="M386.62798818-11.077969339999981zM288.52382568 772.10273378h446.95234864a30.9486331 30.9486331 0 0 1 0 61.89726622h-446.95234864a30.9486331 30.9486331 0 1 1 0-61.89726622zM204.76720918 660.40220537h614.61581748a30.9486331 30.9486331 0 1 1 0 61.82214873H204.76720918a30.9486331 30.9486331 0 0 1 0-61.82214873zM877.44927325 610.5238256800001h-730.89854649A84.6580333 84.6580333 0 0 1 62.04293018 526.0160291v-507.42237217a84.6580333 84.6580333 0 0 1 84.50779657-84.50779657h453.6378545a9.53999122 9.53999122 0 0 1 2.55401279 0 30.64816143 30.64816143 0 0 1 1.05165264 60.84561357 11.34282393 11.34282393 0 0 1-3.60566543 0.6760626H157.66819737a33.72800097 33.72800097 0 0 0-33.72800099 33.72800009V514.89855849A33.72800097 33.72800097 0 0 0 157.66819737 548.5514411199999h713.62139589a28.84532783 28.84532783 0 0 0 28.84532871-28.84532784v-218.44326533a9.16440117 9.16440117 0 0 1 0.60094425-3.23007539 30.64816143 30.64816143 0 0 1 61.07096776 1.05165176 10.21605381 10.21605381 0 0 1 0 2.17842363V526.0160291a84.58291494 84.58291494 0 0 1-84.35756073 84.50779658zM578.17899511 295.55387636H320.37387559a19.98139922 19.98139922 0 1 0 0 39.96279844h257.80511952a19.98139922 19.98139922 0 1 0 1e-8-39.96279844z m-75.11804208-119.81327607H320.22363974a19.98139922 19.98139922 0 1 0 0 39.96279844h182.68707745a19.98139922 19.98139922 0 1 0 0-39.96279844z m75.11804208 239.10072715H320.22363974a20.05651758 20.05651758 0 0 0 0 40.03791592h257.80511865a20.05651758 20.05651758 0 0 0 1e-8-40.03791592zM228.50451055 405.82716211A28.46973779 28.46973779 0 1 0 257.34983838 434.37201826a28.39461943 28.39461943 0 0 0-28.84532783-28.54485615z m0-239.10072715A28.46973779 28.46973779 0 1 0 257.34983838 195.49664530999996a28.39461943 28.39461943 0 0 0-28.84532783-28.61997363z m0 119.73815859A28.46973779 28.46973779 0 1 0 257.34983838 315.08456807000005a28.46973779 28.46973779 0 0 0-28.84532783-28.46973867zM764.17126631 235.38432538999996h66.77993936a20.05651758 20.05651758 0 0 1 0 40.03791592h-66.77993936a20.05651758 20.05651758 0 1 1 0-40.03791592zM935.29016562 211.19631562999996H659.83230635a20.05651758 20.05651758 0 0 1 0-40.11303428h9.16440117v-183.58849336a53.48404599 53.48404599 0 0 1 53.40892764-53.40892763h150.2360833a53.48404599 53.48404599 0 0 1 53.40892763 53.40892763V118.50065214999995a20.05651758 20.05651758 0 1 1-40.03791591-1e-8v-131.00586415a13.37101172 13.37101172 0 0 0-13.37101172-13.37101172h-150.2360833a13.37101172 13.37101172 0 0 0-13.29589336 13.37101172V171.08328135h226.18042382a20.05651758 20.05651758 0 0 1 1e-8 40.11303428zM744.11474873 107.68365411000002V30.236953419999963a20.05651758 20.05651758 0 0 1 40.11303428 0V107.68365411000002a20.05651758 20.05651758 0 0 1-40.11303428-1e-8zM810.89468809 107.68365411000002V30.236953419999963a20.05651758 20.05651758 0 1 1 40.03791592 0V107.68365411000002a20.05651758 20.05651758 0 1 1-40.03791593-1e-8z"  horiz-adv-x="1024" />
      
      <glyph glyph-name="waigoujianjieyue" unicode="&#59917;" d="M846.04320195 195.00010635l-103.87498271 22.49999648L543.26825263 135.4501166a55.12499121 55.12499121 0 0 1-25.57499589-18.74999707l-127.49997832 73.1999874a52.49999092 52.49999092 0 0 1-30.67499532 8.54999913 62.99998945 62.99998945 0 0 1-54.4499912-32.32499502 65.24998945 65.24998945 0 0 1-6.82499883-47.69999209 67.49998857 67.49998857 0 0 1 30.67499531-37.49999327L551.51825117-44.99985351999999l221.32496338 40.87499326h74.9999874z m-30.67499443-175.274971l-47.62499239 5.09999942L558.26825029-10.94985908000001 352.31828398 118.42511894999996a13.04999825 13.04999825 0 0 0-10.19999794 13.64999765 13.04999825 13.04999825 0 0 0 1.72499941 14.99999765 26.7749956 26.7749956 0 0 0 28.9499959 8.47499854L507.26825878 84.00012509999999a105.52498242 105.52498242 0 0 1 3.37499913-32.32499502 55.42499092 55.42499092 0 0 1 59.99998975-37.49999326 51.5999918 51.5999918 0 0 1 27.2249956 8.47499853l80.02498711 40.87499327v36.14999414l-108.97498212-40.79999356a24.2249959 24.2249959 0 0 0-28.94999502 11.92499824l-1.64999971 8.47499853a22.04999648 22.04999648 0 0 0 13.57499794 20.39999679L745.76821836 186.52510781l69.74998857-22.49999648zM914.14319082-5.849859670000001l-30.67499532 1.72499941V196.72510664000004h32.32499503l-1.64999971-202.57496631zM553.24325059 213.75010341999996L469.84326435 309.0000873c-10.27499854 11.92499825-17.02499677 25.5749959-5.17499912 35.77499385s27.29999531 3.37499912 37.49999414-8.54999824l57.89999005-66.37498858L558.26825029 479.32505918c0 14.99999766 1.72499942 28.94999502 17.02499679 27.22499561 14.99999766 0 18.74999707-11.92499825 18.74999706-27.22499561v-209.39996514l52.49999092 71.5499877 5.09999941 5.09999941a20.77499619 20.77499619 0 0 0 25.5749959 3.37499912 27.37499502 27.37499502 0 0 0 3.37499913-39.14999297L594.11824385 213.75010341999996a26.9999956 26.9999956 0 0 0-37.49999327-3.37499912c-3.37499912 1.64999971-3.37499912 1.64999971-3.375 3.37499912zM855.11820078 718.05001963C855.11820078 798.30000586 827.29320489 834 757.9182166 834H215.44330713C140.96831943 830.32500029 106.54332558 791.92500703 108.268325 718.05001963v-667.87488896C108.268325-27.074856739999973 144.94331885-65.99984971000003 215.81830742-65.99984971000003h191.02496748a7.04999883 7.04999883 0 0 1 4.19999942 1.34999913c13.79999795 9.67499825 19.72499677 18.82499678 17.99999736 27.97499531-2.32499971 12.67499795-18.59999678 17.09999737-20.39999678 17.54999736a6.82499883 6.82499883 0 0 1-1.72499941 0l-192.82496836 1.72499942c-38.62499326 0-56.92499033 23.54999589-56.92499033 67.12498916V718.05001963c0 41.84999297 20.69999648 67.49998857 58.64999062 67.49998857h542.09990918c39.22499355 0 48.37499209-26.5499956 48.37499209-67.49998857v-333.59994492a27.37499502 27.37499502 0 0 1 23.39999649-31.57499444h2.69999912c14.99999766 0 24.44999589 11.92499825 24.44999589 31.19999502zM214.76830713 743.62501465h61.34998974v-173.3249707H214.76830713zM386.66827901 743.62501465h61.34998974v-173.3249707h-61.34998974zM286.46829511 743.62501465h11.32499796v-173.3249707h-11.32499795zM334.39328721 743.62501465h11.32499795v-173.3249707h-11.32499795zM352.54328398 743.62501465h26.77499561v-173.3249707h-26.77499561zM651.34323477 743.62501465h17.92499677v-173.3249707h-17.92499677zM307.16829161 743.62501465h19.64999706v-173.3249707h-19.64999706zM554.21825029 743.62501465h37.87499444v-173.3249707h-37.87499444zM454.01826729 743.62501465h11.32499794v-173.3249707H454.01826729zM501.94325938 743.62501465H513.26825732v-173.3249707h-11.32499794zM600.86824297 743.62501465h11.32499795v-173.3249707h-11.32499795zM676.09323037 743.62501465h11.32499796v-173.3249707h-11.32499796zM695.21822685 743.62501465h11.32499883v-173.3249707h-11.32499883zM520.09325615 743.62501465h26.77499561v-173.3249707h-26.77499561zM717.41822363 743.62501465h26.77499561v-173.3249707h-26.7749956zM474.71826377 743.62501465h19.64999707v-173.3249707h-19.64999707zM623.51823886 743.62501465h19.64999708v-173.3249707H623.51823886z"  horiz-adv-x="1024" />
      
      <glyph glyph-name="biaodanneirongchaxun" unicode="&#59918;" d="M693.67191875 536.26405664H328.38746065a29.85569737 29.85569737 0 0 1-29.85569737-29.85569737v-3.73196161a29.85569737 29.85569737 0 0 1 29.85569737-29.85569737h365.2844581a29.85569737 29.85569737 0 0 1 29.85569737 29.85569737v3.73196161a29.85569737 29.85569737 0 0 1-29.85569737 29.85569737zM693.67191875 380.49195556999996H328.38746065a29.85569737 29.85569737 0 0 1-29.85569737-29.85569737v-3.80660185a29.85569737 29.85569737 0 0 1 29.85569737-29.85569737h365.2844581a29.85569737 29.85569737 0 0 1 29.85569737 29.85569737v3.80660185a29.85569737 29.85569737 0 0 1-29.85569737 29.85569737zM477.06883438 224.71985361999998H328.38746065a29.85569737 29.85569737 0 0 1-29.85569737-29.85569737v-3.73196162a29.85569737 29.85569737 0 0 1 29.85569737-29.85569736h148.68137373a29.85569737 29.85569737 0 0 1 29.85569736 29.85569736v3.73196162a29.85569737 29.85569737 0 0 1-29.85569736 29.85569737zM899.22839609 717.7120582a50.23221065 50.23221065 0 0 1-50.08293281 50.00829346H679.19190576V787.7983084A46.35097031 46.35097031 0 0 1 632.91557481 834H382.12771573a46.35097031 46.35097031 0 0 1-46.27633096-46.20169161v-20.07795673H172.46608086A50.15757217 50.15757217 0 0 1 122.38314805 717.7120582v-733.62912539a50.15757217 50.15757217 0 0 1 50.08293281-50.08293281h359.98507177a6.94144951 6.94144951 0 0 1 3.50804444 1.04494922 29.85569737 29.85569737 0 0 1-2.08989844 59.26355947 7.91176026 7.91176026 0 0 1-1.418146 0H182.99021416V707.11328555H335.85138477v-8.5835127a46.27633096 46.27633096 0 0 1 46.27633095-46.2016916h250.78785908a46.35097031 46.35097031 0 0 1 46.27633096 46.20169161V707.11328555H838.9198874v-407.97810527a8.28495615 8.28495615 0 0 1 0.59711397-3.06020919 29.85569737 29.85569737 0 0 1 59.11428076 0 7.01608887 7.01608887 0 0 1 0.8956705 3.35876573z m-276.16520127-9.32990537h-231.38165566V778.0205669h231.38165566zM708.52512852 285.70011651000004a159.80262099 159.80262099 0 1 1 159.80262099-159.802621 159.95189883 159.95189883 0 0 1-159.80262099 159.802621z m0-268.70127716a108.82401768 108.82401768 0 1 0 108.82401767 108.89865615 108.89865615 108.89865615 0 0 0-108.82401767-108.82401767zM894.15292783-16.06634588999998l-68.89202226 68.89202138a25.52662089 25.52662089 0 0 1-36.0507542-36.05075421l68.89202139-68.89202225a25.52662089 25.52662089 0 0 1 36.05075507 36.05075507z"  horiz-adv-x="1024" />
      
      <glyph glyph-name="chanpingenzongka" unicode="&#59919;" d="M644.465 665.2719999999999h-326.41c-18.023 0-32.646-14.459-32.646-32.276s14.623-32.277 32.645-32.277h326.41c18.023 0 32.646 14.46 32.646 32.277s-14.623 32.276-32.645 32.276z m0-150.528h-326.41c-18.023 0-32.646-14.459-32.646-32.276s14.623-32.236 32.645-32.236h326.41c18.023 0 32.646 14.46 32.646 32.236 0 17.817-14.623 32.276-32.645 32.276z m-174.08-150.528h-152.33c-18.023 0-32.646-14.459-32.646-32.276s14.623-32.277 32.645-32.277h152.33c18.023 0 32.646 14.46 32.646 32.277s-14.623 32.276-32.645 32.276zM829.44 783.524c0 17.817-14.623 32.276-32.645 32.276h-631.03c-18.022 0-32.645-14.459-32.645-32.276v-795.648c0-17.818 14.623-32.277 32.645-32.277h303.76c17.285 0 32.44 13.026 33.464 30.27 1.106 18.719-13.722 34.242-32.195 34.242H220.16l-2.54 0.164c-10.977 1.27-19.21 10.445-19.21 21.34V729.7429999999999l0.164 2.499c1.31 10.813 10.568 19.005 21.586 19.005H742.4c5.775 0 11.305-2.252 15.401-6.307a21.293 21.293 0 0 0 6.39-15.197v-281.231c0-0.082 0.082-0.164 0.164-0.164h64.921a0.176 0.176 0 0 1 0.164 0.164V783.524zM796.795 416.686c-17.94 0-32.645 14.705-32.645 32.645v79.75c0 17.94 14.704 32.644 32.645 32.644s32.645-14.704 32.645-32.645v-79.749c0-17.94-14.705-32.645-32.645-32.645z m64.88-287.662h-64.511c-17.49 0-31.663 14.172-31.663 31.662s14.173 31.662 31.663 31.662h64.512c17.49 0 31.662-14.172 31.662-31.662 0.04-17.449-14.173-31.662-31.662-31.662z m-275.005 0h-64.512c-17.49 0-31.662 14.172-31.662 31.662s14.172 31.662 31.662 31.662h64.512c17.49 0 31.662-14.172 31.662-31.662 0.041-17.449-14.131-31.662-31.662-31.662zM723.6 330.46500000000003v-64.512c0-17.49-14.173-31.662-31.663-31.662-17.49 0-31.662 14.172-31.662 31.662v64.512c0 17.49 14.172 31.662 31.662 31.662 17.49 0.041 31.662-14.13 31.662-31.662z m0-274.964v-64.512c0-17.49-14.173-31.662-31.663-31.662-17.49 0-31.662 14.172-31.662 31.662V55.5c0 17.49 14.172 31.662 31.662 31.662S723.6 72.99000000000001 723.6 55.5zM860.242 160.72699999999998c0-95.355-77.292-172.646-172.646-172.646s-172.647 77.291-172.647 172.646 77.292 172.646 172.647 172.646 172.646-77.291 172.646-172.646zM687.596 278.405c-65.004 0-117.679-52.674-117.679-117.678s52.675-117.678 117.679-117.678 117.678 52.675 117.678 117.678-52.675 117.678-117.678 117.678z"  horiz-adv-x="1024" />
      
      <glyph glyph-name="zongshu" unicode="&#59111;" d="M764.41923828-66H259.58076172A114.26923828 114.26923828 0 0 0 145.390625 48.19892577999997V634.1595703099999A114.26923828 114.26923828 0 0 0 259.58076172 748.34794922h41.88515625v-57.09375h-41.88515625a57.14472656 57.14472656 0 0 1-57.10517578-57.09462891v-585.96064453a57.14472656 57.14472656 0 0 1 57.0946289-57.09375h504.84902344a57.14472656 57.14472656 0 0 1 57.09462891 57.09375V634.1595703099999a57.14472656 57.14472656 0 0 1-57.09375 57.09375h-37.00195313V748.34882813h37.00195313a114.26923828 114.26923828 0 0 0 114.1875-114.18837891v-585.96064453A114.26923828 114.26923828 0 0 0 764.42099609-66zM628.28720703 605.6126953099999h-232.58496094A114.19892578 114.19892578 0 0 0 395.703125 834h232.58496094a114.19892578 114.19892578 0 0 0 0-228.38730469zM395.70224609 776.90537109a57.10429688 57.10429688 0 0 1 0-114.19892578h232.58496094a57.10429688 57.10429688 0 0 1 0 114.19892578zM303.06289062 504.48925781h417.87333985q28.546875 0 28.546875-28.546875 0-28.54775391-28.546875-28.5477539H303.06376953q-28.546875 0-28.546875 28.546875t28.546875 28.546875zM303.06289062 357.76816406h417.87333985q28.546875 0 28.546875-28.546875t-28.546875-28.546875H303.06376953q-28.546875 0-28.546875 28.546875t28.546875 28.546875zM303.06289062 211.04882812000005h417.87333985q28.546875 0 28.546875-28.54687499 0-28.54775391-28.546875-28.54775391H303.06376953q-28.546875 0-28.546875 28.546875t28.546875 28.546875z"  horiz-adv-x="1024" />
      
      <glyph glyph-name="yitingyong" unicode="&#59112;" d="M512.17090771 833.99997364A449.9934126 449.9934126 0 1 1 961.99996484 384.00656104 450.48472031 450.48472031 0 0 1 512.17090771 833.99997364z m0-834.24909551a384.42003838 384.42003838 0 1 0 384.25656182 384.25568291A384.74787041 384.74787041 0 0 0 512.17090771-0.2482429699999784zM422.82841572 581.87277568a32.78668711 32.78668711 0 0 1-32.7866871-32.78668711v-329.99382158a32.78668711 32.78668711 0 0 1 65.57249531 1e-8V549.08520967a32.78668711 32.78668711 0 0 1-32.7858082 32.7866871z m180.32502129 0a32.78668711 32.78668711 0 0 1-32.78668711-32.78668711v-329.99382158a32.78668711 32.78668711 0 1 1 65.57249531 1e-8V549.08520967a32.78668711 32.78668711 0 0 1-32.7858082 32.7866871z"  horiz-adv-x="1024" />
      
      <glyph glyph-name="jihua" unicode="&#59902;" d="M682.666667 853.333333a42.666667 42.666667 0 0 0 42.666666-42.666666v-21.333334h128a42.666667 42.666667 0 0 0 42.666667-42.666666v-789.333334a42.666667 42.666667 0 0 0-42.666667-42.666666H170.666667a42.666667 42.666667 0 0 0-42.666667 42.666666V746.666667a42.666667 42.666667 0 0 0 42.666667 42.666666h128V810.666667a42.666667 42.666667 0 0 0 42.666666 42.666666h341.333334zM298.666667 725.333333H192v-746.666666h640V725.333333h-106.666667v-21.333333a42.666667 42.666667 0 0 0-42.666666-42.666667H341.333333a42.666667 42.666667 0 0 0-42.666666 42.666667V725.333333z m202.666666-448a32 32 0 0 0 0-64h-170.666666a32 32 0 0 0 0 64h170.666666z m192 192a32 32 0 0 0 0-64h-362.666666a32 32 0 0 0 0 64h362.666666zM661.333333 789.333333H362.666667v-64h298.666666V789.333333z"  horiz-adv-x="1024" />
      
      <glyph glyph-name="dubanzhong" unicode="&#59901;" d="M379.25 480.59794922c-10.99951172-37.35-26.34960938-68.04931641-48.29941406-94.39980469l-39.49980469 24.15058594c19.74990234 24.14970703 32.90009766 50.49931641 41.69970703 78.99960937l46.10039063-8.75039062z m2.20078125 144.84990234h50.49931641v-19.74990234h83.39941406v-41.69970703h-83.39941406v-21.9506836H532.90039063v-43.89960937H438.50058594v-103.14931641h-50.50019531V498.14794922h-90.00000001v43.85039062h83.49960938v83.44951172zM695.34863281 386.19726563v-243.64863282h-52.69921875v19.74902344H412.14921875v-19.74902344H359.50097656V386.19726563h335.84941407z m-283.19941406-61.49970704h232.69921875V346.69921875h-232.69921875v-21.99902344z m0-61.44960937h232.69921875V287.39941406h-232.69921875v-24.14970703z m0-59.24970703h232.69921875v24.14970703h-232.69921875V204z m81.24960938 285.34921875c13.15019531-21.94980469 24.15058594-46.10039062 32.90009765-70.25009766l-39.49980469-17.49902344c-10.99951172 26.29951172-21.94980469 50.44921875-35.1 74.59892578l41.69970704 13.15019532z m41.70058593 61.49970703v46.09951172h199.74902344v-43.94970703c-11.00039063-32.90009766-28.50029297-63.65039063-52.69921875-87.79921875 19.79912109-11.00039063 46.09863281-24.15058594 76.84892578-32.90009766l-24.14970703-43.90048828c-37.29990234 13.15019531-68.00009766 26.34960938-92.19990234 43.90048828a388.49853516 388.49853516 0 0 0-85.59931641-41.69970703l-24.15058594 43.89960937c26.34960938 8.74951172 50.50019531 17.55 70.25097656 30.70019532-24.15058594 24.14970703-39.50068359 52.69921875-50.50019531 85.64941406h-17.55z m147.04980469 0h-79.00048828c6.60058594-19.8 17.55-39.49980469 39.49980469-57.09990235 15.35009766 17.55 28.50029297 37.29990234 39.49980468 57.09990235zM870.14902344 833.99736328H175.60126953C141.35117188 833.99736328 112.00097656 809.49609375 112.00097656 775.2969726599999v-782.59746094c0-34.24921875 29.35019531-58.69951172 63.60029297-58.69951172h699.39755859c34.25009766 0 63.59941406 29.35019531 63.59941407 58.69951172V775.29785156A68.59951172 68.59951172 0 0 1 870.14902344 833.99736328z m5.19960937-841.29785156H175.60126953V775.29785156H875.34863281v-782.59746094z"  horiz-adv-x="1024" />
      
      <glyph glyph-name="daiqidong" unicode="&#59900;" d="M512-64C264.576-64 64 136.512 64 384S264.576 832 512 832c247.488 0 448-200.512 448-448S759.488-64 512-64z m0 821.12v0.256c-214.08-0.064-373.12-167.68-373.12-373.376S306.304 10.88 512 10.88 885.12 178.24 885.12 384 717.76 757.12 512 757.12z m-66.048-554.816a26.88 26.88 0 0 0-30.336-0.832 35.456 35.456 0 0 0-15.424 29.952V574.016c0 12.416 5.888 23.872 15.424 29.952a26.88 26.88 0 0 0 30.4-0.896l238.912-171.328c8.64-6.272 13.952-17.28 13.952-29.056s-5.312-22.784-14.016-28.992L445.952 202.304z"  horiz-adv-x="1024" />
      
      <glyph glyph-name="daipaifa" unicode="&#59899;" d="M829.61 149.333l-44.5 44.502a42.667 42.667 0 0 0 60.373 60.33l88.405-88.448 0.555 0.555 60.373-60.33-0.597-0.555 0.597-0.555-60.373-60.33-0.555 0.554-88.405-88.448a42.667 42.667 0 0 0-60.374 60.33L832.171 64H768c-162.56 0-299.093 103.253-299.093 319.573 0 163.115-94.507 235.094-212.907 235.094H85.333a42.667 42.667 0 1 0 0 85.333H256c161.28 0 298.24-104.277 298.24-320.427 0-163.2 93.995-234.24 213.76-234.24h61.61z m2.56 469.334h-65.066c-50.773 0-105.984-17.494-145.408-52.992a42.667 42.667 0 1 0-57.088 63.445C621.227 680.107 696.747 704 767.104 704h62.507l-44.502 44.501a42.667 42.667 0 0 0 60.374 60.331l88.405-88.448 0.555 0.555 60.373-60.331-0.597-0.555 0.597-0.554-60.416-60.331-0.555 0.555-88.405-88.448a42.667 42.667 0 1 0-60.373 60.33l47.104 47.062zM213.334 444.33l60.331 60.33a42.667 42.667 0 1 0 60.33-60.33L273.665 384l60.33-60.33a42.667 42.667 0 1 0-60.33-60.331l-60.33 60.33-60.331-60.33a42.667 42.667 0 0 0-60.331 60.33L153.002 384l-60.33 60.33a42.667 42.667 0 1 0 60.33 60.331l60.331-60.33z m257.323-302.507C414.037 79.147 352.853 64 255.146 64H85.334a42.667 42.667 0 0 0 0 85.333h169.771c75.477 0 116.48 10.155 152.235 49.707a42.667 42.667 0 1 0 63.317-57.173z"  horiz-adv-x="1024" />
      
      <glyph glyph-name="bianjizhong" unicode="&#59898;" d="M582.4 748.8L140.8 307.2 96 64l243.2 44.8 441.6 441.6c25.6 25.6 25.6 70.4 0 96L678.4 748.8c-25.6 25.6-70.4 25.6-96 0z m134.4-185.6L659.2 512 544 627.2l51.2 51.2c19.2 19.2 51.2 19.2 76.8 0l38.4-38.4c25.6-19.2 25.6-57.6 6.4-76.8zM211.2 294.4l294.4 294.4 115.2-115.2-294.4-294.4-153.6-32 38.4 147.2zM928 0H96c-19.2 0-32 12.8-32 32s12.8 32 32 32h832c19.2 0 32-12.8 32-32s-12.8-32-32-32z"  horiz-adv-x="1024" />
      
      <glyph glyph-name="cangsuo" unicode="&#59896;" d="M512 275.51111079a40.00000031 40.00000031 0 0 0-29.59999969 13.2 1348.00000031 1348.00000031 0 0 1-114.40000031 114.80000062 240 240 0 1 0 288 0 1409.20000031 1409.20000031 0 0 1-114.40000031-114.80000062 40.00000031 40.00000031 0 0 0-29.59999969-13.2z m0 480a160.00000031 160.00000031 0 0 1-96-288 1014 1014 0 0 0 96-93.19999969 1014 1014 0 0 0 96 93.19999969 160.00000031 160.00000031 0 0 1-96 288zM912.00000031-44.488888900000006H111.99999969a40.00000031 40.00000031 0 0 0-37.99999969 52.8l120 360a40.00000031 40.00000031 0 0 0 40.00000031 27.19999969h41.19999938a40.00000031 40.00000031 0 0 0 0-79.99999969h-14.4l-93.19999969-280.00000031h688.8l-93.19999969 280.00000031h-26.00000062a40.00000031 40.00000031 0 0 0 0 79.99999969H792.00000031a40.00000031 40.00000031 0 0 0 37.99999969-27.19999969l120-360a40.00000031 40.00000031 0 0 0-37.99999969-52.8zM552.00000031 95.51111078999998h-80.00000062a19.99999969 19.99999969 0 0 0-19.99999969 20.00000062 19.99999969 19.99999969 0 0 0 19.99999969 19.99999969h80.00000062a19.99999969 19.99999969 0 0 0 19.99999969-19.99999969 19.99999969 19.99999969 0 0 0-19.99999969-20.00000062zM512 535.51111141a60 60 0 1 0 60 60 60 60 0 0 0-60-60z m0 79.99999969a19.99999969 19.99999969 0 0 1-19.99999969-19.99999969 19.99999969 19.99999969 0 1 1 39.99999938 0 19.99999969 19.99999969 0 0 1-19.99999969 19.99999969z"  horiz-adv-x="1024" />
      
      <glyph glyph-name="zhuanxiangjiandu" unicode="&#59897;" d="M831.488 737.7351111099999l-288.88177778 78.96177778c-9.89866667 2.73066667-20.25244445 4.096-30.60622222 4.096-10.35377778 0-20.59377778-1.36533333-30.60622222-4.096l-288.88177778-78.96177778c-50.97244445-13.99466667-86.58488889-60.64355555-86.58488889-113.55022222v-354.98666667c0-73.95555555 38.912-141.99466667 101.71733334-177.72088889l210.60266666-119.69422222c28.44444445-16.15644445 60.87111111-24.68977778 93.86666667-24.68977778s65.30844445 8.53333333 93.63911111 24.68977778L816.35555555 91.59111111000004l1.13777778 0.68266667c62.00888889 35.84 100.57955555 103.65155555 100.57955556 177.03822222v354.98666667c0.11377778 52.90666667-35.61244445 99.55555555-86.58488889 113.43644444z m-653.312-113.43644444c0 20.48 13.76711111 38.57066667 33.45066667 43.91822222l288.768 78.96177778c3.75466667 1.024 7.62311111 1.59288889 11.60533333 1.59288888 3.86844445 0 7.73688889-0.56888889 11.49155555-1.59288888l288.99555556-78.96177778c19.79733333-5.34755555 33.56444445-23.43822222 33.56444444-43.91822222v-363.40622222h-0.22755555l-0.34133333-3.18577778c-3.64088889-43.80444445-27.87555555-82.48888889-64.73955556-103.53777778L570.14044445 34.47466667000003c-17.52177778-10.01244445-37.66044445-15.24622222-58.02666667-15.24622222s-40.50488889 5.23377778-58.02666667 15.24622222L243.48444445 154.28266667000003c-40.27733333 22.86933333-65.19466667 66.90133333-65.19466667 115.02933333l-0.11377778 354.98666667zM511.88622222 506.99377778c-20.13866667 0-36.40888889 16.27022222-36.40888889 36.40888889v63.71555555c0 20.13866667 16.27022222 36.40888889 36.40888889 36.40888889s36.40888889-16.27022222 36.40888889-36.40888889v-63.71555555c0-20.13866667-16.384-36.40888889-36.40888889-36.40888889zM512.22755555 147.11466667000002c-20.13866667 0-36.40888889 16.27022222-36.40888888 36.40888888v63.71555556c0 20.13866667 16.27022222 36.40888889 36.40888888 36.40888889s36.40888889-16.27022222 36.4088889-36.40888889v-63.71555556c0-20.02488889-16.384-36.40888889-36.4088889-36.40888888zM400.384 395.264c0-20.13866667-16.27022222-36.40888889-36.40888889-36.40888889h-63.71555556c-20.13866667 0-36.40888889 16.27022222-36.40888888 36.40888889s16.27022222 36.40888889 36.40888888 36.40888889h63.71555556c20.13866667 0 36.40888889-16.384 36.40888889-36.40888889zM760.14933333 395.49155555c0-20.13866667-16.27022222-36.40888889-36.40888888-36.40888888h-63.71555556c-20.13866667 0-36.40888889 16.27022222-36.40888889 36.40888888s16.27022222 36.40888889 36.40888889 36.4088889h63.71555556c20.13866667 0 36.40888889-16.15644445 36.40888888-36.4088889zM513.13777778 213.44711111000004c-100.352 0-182.04444445 81.69244445-182.04444445 182.04444444s81.69244445 182.04444445 182.04444445 182.04444445 182.04444445-81.69244445 182.04444444-182.04444445-81.69244445-182.04444445-182.04444444-182.04444444z m0 291.15733334c-60.18844445 0-109.22666667-49.03822222-109.22666667-109.22666667s49.03822222-109.22666667 109.22666667-109.22666667 109.22666667 49.03822222 109.22666667 109.22666667-49.03822222 109.22666667-109.22666667 109.22666667zM513.13777778 395.49155555m-45.51111111 0a45.51111111 45.51111111 0 1 1 91.02222222 0 45.51111111 45.51111111 0 1 1-91.02222222 0Z"  horiz-adv-x="1024" />
      
      <glyph glyph-name="bumenmianxing" unicode="&#59894;" d="M746.897-36.285h53.337V568.498l229.02-77.156a107.743 107.743 0 0 0 73.327-102.088v-425.54h71.101v-71.145H0v71.146h71.146V677.843c0 50.31 34.816 93.941 83.923 105.072L615.424 887.185a107.743 107.743 0 0 0 131.473-105.072v-818.398zM405.949 715.153l-50.666-108.455-121.99-14.38L324.297 512l-25.555-120.743 107.208 60.55 106.318-60.55-24.62 117.315 91.982 83.745-123.059 14.38-50.62 108.456zM287.388 170.296v-201.773h243.267V170.296A121.366 121.366 0 0 1 409.02 291.395a121.366 121.366 0 0 1-121.633-121.1zM848.94 388.363v-48.529h201.505v48.53H848.94z m-1.648-138.552v-48.528H1048.8V249.81H847.293z m0-138.551v-48.484H1048.8v48.528H847.293z"  horiz-adv-x="1202" />
      
      <glyph glyph-name="gerenmianxing" unicode="&#59895;" d="M363.436 395.273a268.409 268.409 0 1 0 297.095 0c205.5-63.377 354.735-254.752 354.735-480.988a33.55 33.55 0 0 0-33.552-33.55H42.286a33.55 33.55 0 0 0-33.552 33.551c0 226.234 149.303 417.61 354.702 480.988z"  horiz-adv-x="1024" />
      
      <glyph glyph-name="liaotianjilu" unicode="&#59892;" d="M313.214 488.583c1.31 121.283 79.049 199.663 199.768 200.703 100.996 0.87 202.037 1.715 302.974-0.605 36.165-0.835 43.174 12.723 38.56 44.484C842.102 818.898 769.402 882.634 676.66 883.294c-164.128 1.18-328.25 1.135-492.378 0.09C76.552 882.689 4.077 811.714 1.372 704.588c-1.87-73.9-1.795-147.915 0.02-221.815 2.215-90.483 52.763-153.664 140.956-173.411 27.596-6.174 32.001-13.073 21.132-38.045-19.812-45.514-36.86-92.237-55.057-138.451 3.674-2.91 7.364-5.824 11.033-8.724 51.698 32.141 102.526 65.806 155.464 95.777 28.486 16.123 40.25 35.115 38.92 68.521C311.184 355.051 312.499 421.862 313.214 488.583L313.214 488.583zM1009.954 651.981c-167.722 3.545-335.614 3.375-503.336 0.055-91.637-1.81-152.019-63.436-155.649-154.699-3.575-90.073-3.77-180.52 0.095-270.563 4.119-95.767 68.981-153.429 166.647-154.909 54.113-0.81 108.35-2.185 162.353 0.51 41.644 2.085 76.255-9.014 111.065-31.836 79.964-52.428 162.228-101.321 256.515-159.653-17.068 43.344-28.201 71.405-39.16 99.531-11.033 28.291-21.897 56.652-33.685 87.203 10.174 1.71 16.968 3.435 23.837 3.934 112.21 8.119 166.427 64.716 167.537 176.736 0.78 79.384 1.485 158.798-0.23 238.147C1163.808 585.085 1106.086 649.951 1009.954 651.981L1009.954 651.981z"  horiz-adv-x="1168" />
      
      <glyph glyph-name="notice" unicode="&#59893;" d="M560.63 757.35c-13.14 6.18-28.65 4.14-39.81-5.13l-215.19-179.1-171.66 0.69c-9.87 0-19.38-3.9-26.37-10.89-7.050-6.99-11.040-16.5-11.040-26.46l-0.78-299.31c0-9.96 3.9-19.5 10.92-26.52 6.99-7.080 16.53-11.010 26.49-11.010h173.55l214.11-178.44c6.84-5.7 15.39-8.64 23.94-8.64 5.4 0 10.8 1.17 15.87 3.54 13.14 6.15 21.54 19.35 21.54 33.87v673.53c0 14.49-8.4 27.69-21.57 33.87v0zM705.71 570.27c-18.45 8.73-40.38 0.78-49.35-17.58-8.94-18.42-1.2-40.71 17.1-49.92 2.37-1.23 58.41-30.36 58.41-113.31 0-88.62-52.41-117.99-54.15-118.95-18.48-9.24-25.98-31.74-16.74-50.22 6.6-13.14 19.77-20.7 33.54-20.7 5.61 0 11.34 1.26 16.68 3.93 3.9 1.98 95.49 49.38 95.49 185.94 0 131.76-96.87 178.86-100.98 180.81v0zM822.2 680.16c-17.25 11.070-40.14 6.030-51.42-11.19-11.22-17.22-6.3-40.38 10.86-51.72 4.050-2.67 99.9-67.98 99.9-230.55 0-162.93-91.95-228.3-95.61-230.79-17.22-11.49-21.84-34.68-10.38-51.9 7.2-10.8 19.080-16.65 31.17-16.65 7.11 0 14.34 2.070 20.73 6.3 5.25 3.48 128.91 88.26 128.91 293.070 0 205.2-128.67 289.92-134.16 293.43v0zM822.2 680.16z"  horiz-adv-x="1024" />
      
      <glyph glyph-name="xiaoxi2" unicode="&#59890;" d="M594.917 751.601c0 43.804-37.123 79.478-82.916 79.478-45.7 0-82.918-35.585-82.918-79.478 0-4.473 0.386-8.86 1.13-13.133-114.498-38.254-208.43-155.73-208.43-294.718v-109.423s0-157.59-40.389-158.964c-24.082 0-42.528-17.792-42.528-39.74 0-22.1 18.557-39.738 41.452-39.738h663.366c23.005 0 41.451 17.791 41.451 39.737 0 22.104-18.557 39.741-41.45 39.741-41.466 0-41.466 157.854-41.466 157.854v110.52c0 139.166-87.828 256.69-208.409 294.828a76.963 76.963 0 0 1 1.107 13.036z m41.46-695.39c-0.123-65.905-55.285-119.29-124.377-119.29-68.617 0-124.255 53.164-124.379 119.29h248.757z"  horiz-adv-x="1024" />
      
      <glyph glyph-name="daiban1" unicode="&#59891;" d="M472.8 139.8c0 75.2 35.5 143.5 91.1 187-3.2-1.6-6.9-2.6-10.6-2.6H296.5c-12.7 0-23.3 10.6-23.3 23.3s10.6 23.3 23.3 23.3h256.3c12.7 0 23.3-10.6 23.3-23.3 0-6.4-2.6-11.7-6.4-15.9 37.1 27.5 82.6 43.4 131.9 43.4 61.4 0 126-19.1 167.4-58.3V794.9c0 20.7-16.4 37.1-37.1 37.1H163c-20.7 0-37.1-16.4-37.1-37.1v-798.6c0-20.7 16.4-37.1 37.1-37.1h394c-53.5 41.9-84.2 107-84.2 180.6zM296.5 658.3h399.3c12.7 0 23.3-10.6 23.3-23.3 0-12.7-10.6-23.3-23.3-23.3H296.5c-12.7 0-23.3 10.6-23.3 23.3 0 12.7 10.6 23.3 23.3 23.3z m0-144h399.3c12.7 0 23.3-10.6 23.3-23.3 0-12.7-10.6-23.3-23.3-23.3H296.5c-12.7 0-23.3 10.6-23.3 23.3 0 12.7 10.6 23.3 23.3 23.3zM569.7 331.5l-6.4-4.8c2.7 1.1 4.9 2.7 6.4 4.8zM711.7 342.1c-111.7 0-202.8-90.6-202.8-202.8 0-111.7 90.6-202.8 202.8-202.8 111.7 0 202.8 90.6 202.8 202.8s-91.1 202.8-202.8 202.8z m107.2-182L796 148.8c-7.2-4-13.3-9.7-17.7-16.7L729 45.2c-0.6-1.2-1.3-2.2-2.3-3-3.8-3.3-9.6-2.9-12.9 1l-36.9 37.1-77.9-50.6 52.7 75.8-32.1 32.3c-1.1 0.9-1.9 2.1-2.5 3.4-1.8 4.5 0.4 9.6 4.8 11.4l89.8 46.5c7 4.1 12.5 10.4 15.8 17.8l9.7 26c0.4 1.8 1.4 3.4 2.9 4.5 3.3 2.5 8 1.8 10.5-1.5l70.8-71.1c1.2-1 2-2.2 2.6-3.6 1.5-4.5-0.7-9.4-5.1-11.1z"  horiz-adv-x="1024" />
      
      <glyph glyph-name="tongxunlu" unicode="&#59887;" d="M711.602525 508.208906l215.391628 0c16.918321 0 29.658484-8.594749 29.658484-26.744107 0-18.154475-14.712073-26.749224-31.629371-26.749224L711.602525 454.715575c-16.925485 0-30.656207 8.594749-30.656207 26.749224C680.946318 499.615181 694.677041 508.208906 711.602525 508.208906zM956.088796 358.900346c0-18.151405-12.748349-26.752294-29.661553-26.752294L757.275751 332.148052c-16.925485 0-30.65723 8.597819-30.65723 26.752294 0 18.149359 13.731746 26.743084 30.65723 26.743084l170.132842 0C944.324868 385.64343 956.088796 377.049704 956.088796 358.900346zM800.847106 81.614042c0-39.784098-32.308847-64.12446-72.02643-64.12446L466.867592 17.489582l-84.297918 0-245.941412 0c-39.711444 0-72.024383 24.337291-72.024383 64.12446l0 17.287735c0 36.45426 26.839275 68.769246 61.099566 81.065294l146.643871 65.364707c0 0 39.749306 12.218276 50.631144 24.411993 7.239891 8.121981 9.473769 34.901905 0.296759 52.481282-9.174963 17.577331-83.47825 114.289999-83.47825 195.409528 0 130.822534 85.99149 236.876965 192.06127 236.876965 106.073874 0 192.058201-106.054431 192.058201-236.876965 0-84.695984-83.380012-177.934528-90.234117-200.878077-6.859221-22.943548-7.41283-40.902572 0.333598-48.523133 12.050454-11.843746 43.062771-23.88806 43.062771-23.88806l162.670893-63.391772c34.262338-12.301164 61.10059-45.601594 61.10059-82.055854L800.847106 81.614042 800.847106 81.614042zM926.918429 216.700693 813.853327 216.700693c-16.921391 0-30.653137 8.594749-30.653137 26.752294 0 18.147312 13.731746 26.743084 30.653137 26.743084l114.049522 0c16.921391 0 29.647227-8.594749 29.647227-26.743084C957.549054 225.298512 943.837774 216.700693 926.918429 216.700693z"  horiz-adv-x="1024" />
      
      <glyph glyph-name="chat" unicode="&#59888;" d="M327.25804854 271.5H287.10375224a226.66406221 226.66406221 0 0 0-44.14453154 4.33593721l-73.828125-73.828125A18.74999971 18.74999971 0 0 0 137.10375195 215.25V328.78710937000005A224.94726563 224.94726563 0 0 0 287.10375224 721.5h149.99999942a225.22851563 225.22851563 0 0 0 207.31054746-137.41406279q2.63671875-6.23437471 4.88085908-12.5859375H587.10375195a262.3359375 262.3359375 0 0 1-262.50000029-262.49999942 264.87890596 264.87890596 0 0 1 2.65429688-37.50000029z m617.15625029 125.0859375A224.83007842 224.83007842 0 0 1 737.10375224 534.00000029H587.10375195a225 225 0 1 1 0-450h150.00000029a226.66406221 226.66406221 0 0 1 44.14453067 4.33593721l73.828125-73.828125A18.74999971 18.74999971 0 0 1 887.10375166 27.750000290000003v113.53710938a225.22265596 225.22265596 0 0 1 57.31054717 255.29882783z"  horiz-adv-x="1024" />
      
      <glyph glyph-name="telephonebook" unicode="&#59889;" d="M826.027 834.56H197.973c-22.755 0-43.235-9.102-56.889-25.031-15.928-13.653-25.03-34.133-25.03-56.889v-122.88c13.653 0 27.306-6.827 36.408-20.48 6.827-13.653 6.827-27.307 0-40.96-6.826-13.653-20.48-20.48-36.409-20.48v-102.4c13.654 0 27.307-6.827 36.41-20.48 6.826-13.653 6.826-27.307 0-40.96-6.827-13.653-20.48-20.48-36.41-20.48v-102.4c13.654 0 27.307-6.827 36.41-20.48 6.826-13.653 6.826-27.307 0-40.96-6.827-13.653-20.48-20.48-36.41-20.48v-163.84c0-45.511 36.41-81.92 81.92-81.92h628.054c22.755 0 43.235 9.102 56.889 25.031 15.928 15.929 25.03 36.409 25.03 56.889V752.64c0 45.511-36.408 81.92-81.92 81.92zM694.044 170.09799999999996c-31.857-31.858-157.013-2.276-277.617 120.604C295.822 411.307 263.964 534.187 295.822 568.3199999999999c29.582 29.582 63.716 79.644 116.054 13.653s27.306-84.195-2.276-113.777c-20.48-20.48 22.756-72.818 68.267-118.33s97.849-88.746 118.329-68.266c29.582 29.582 47.786 54.613 113.777 2.276 61.44-50.063 13.654-84.196-15.929-113.778z"  horiz-adv-x="1024" />
      
      <glyph glyph-name="yingyong1" unicode="&#59883;" d="M347.3518646 771.3514955q25.773475 0 44.112294-17.843175t18.338819-43.616651l0-247.821878q0-25.773475-18.338819-44.112294t-44.112294-18.338819l-247.821878 0q-25.773475 0-43.616651 18.338819t-17.843175 44.112294l0 247.821878q0 25.773475 17.843175 43.616651t43.616651 17.843175l247.821878 0zM347.3518646 275.7077395q25.773475 0 44.112294-17.843175t18.338819-43.616651l0-248.813166q0-25.773475-18.338819-43.616651t-44.112294-17.843175l-247.821878 0q-25.773475 0-43.616651 17.843175t-17.843175 43.616651l0 248.813166q0 25.773475 17.843175 43.616651t43.616651 17.843175l247.821878 0zM843.9869086 275.7077395q25.773475 0 43.616651-17.843175t17.843175-43.616651l0-248.813166q0-25.773475-17.843175-43.616651t-43.616651-17.843175l-247.821878 0q-25.773475 0-44.112294 17.843175t-18.338819 43.616651l0 248.813166q0 25.773475 18.338819 43.616651t44.112294 17.843175l247.821878 0zM981.7758726 662.3098695q19.82575-19.82575 19.82575-46.590513t-19.82575-45.599226l-184.379477-184.379477q-19.82575-19.82575-46.094869-19.82575t-46.094869 19.82575l-184.379477 184.379477q-18.834463 18.834463-18.834463 45.599226t18.834463 46.590513l184.379477 184.379477q19.82575 18.834463 46.094869 18.834463t46.094869-18.834463z"  horiz-adv-x="1026" />
      
      <glyph glyph-name="fuwuleixing" unicode="&#59884;" d="M824 864H218c-66 0-120-54-120-120v-840H152l114 84c6 6 18 6 24 0L392-84c6-6 18-6 24 0l102 72c6 6 18 6 24 0l102-72c6-6 18-6 24 0l102 72c6 6 18 6 24 0l114-84h54V744c-18 66-72 120-138 120z m-180-468l24-132c0-18-12-30-24-18l-114 60H512l-114-60c-12-6-30 6-24 18l24 120c0 6 0 12-6 18L296 492c-12 12-6 30 12 30l126 18c6 0 12 6 12 12l54 114c6 12 24 12 36 0l54-114c0-6 6-12 12-12l126-18c18 0 24-24 12-30l-96-96z"  horiz-adv-x="1024" />
      
      <glyph glyph-name="yingyong2" unicode="&#59885;" d="M75.09333333 596.9533155500001l411.00970667-225.91715555L486.10190222-104.10666666999998l-393.70524444 222.04074667a33.99907555 33.99907555 0 0 0-17.29877333 29.07932445l-0.00455112 0.53361777V596.9533155500001z m887.46552889 12.87054223L962.56 147.54702222000003a33.99907555 33.99907555 0 0 0-17.30332445-29.61294222l-388.47601777-219.09048889 0.00113777 472.83541334L962.56 609.82385778zM502.09792 882.50595555a34.05824 34.05824 0 0 0 33.45749333 0L921.71377778 664.72391111 520.93383111 429.50883555 104.62321778 658.34097778z"  horiz-adv-x="1024" />
      
      <glyph glyph-name="xitong" unicode="&#59886;" d="M936.77036999 796.63407445A36.40888889 36.40888889 0 0 0 973.17925888 760.22518557v-582.54222223a36.40888889 36.40888889 0 0 0-36.40888889-36.40888889H549.7438811v-97.09037112H766.86222222a36.40888889 36.40888889 0 0 0 0-72.81777778h-509.72444444a36.40888889 36.40888889 0 0 0 0 72.81777778h219.78832555v97.09037112H87.22963001A36.40888889 36.40888889 0 0 0 50.82074112 177.68296334000001v582.54222223A36.40888889 36.40888889 0 0 0 87.22963001 796.63407445h849.54073998zM900.3614811 359.72740779000003H123.6385189v-72.81777778h776.7229622v72.81777778z"  horiz-adv-x="1024" />
      
      <glyph glyph-name="qijian" unicode="&#58980;" d="M373.86666664 853.33333334h76.8v-313.152h-76.8zM694.37866664 853.33333334h76.8v-313.152h-76.8zM247.46666664 374.29333334h642.368v-284.032H247.46666664zM889.89866664 463.38133334v-89.152c-49.088-33.024-81.408-76.288-81.408-139.712s32-113.152 81.408-146.176v-82.752H247.46666664v89.152c49.088 33.024 81.408 76.288 81.408 139.776S296.55466664 341.20533334000004 247.46666664 374.22933334000004V463.38133334h616.832m102.4 76.8H170.66666664v-224a81.408 81.408 0 0 0 0-162.816v-224h796.032v224a81.408 81.408 0 1 0 0 162.816v224z"  horiz-adv-x="1134" />
      
      <glyph glyph-name="hetongbianhao" unicode="&#58981;" d="M313.35508231 669.2581710100001h537.566402v-537.566402h-537.566402zM348.80886631 599.8865070100001H764.33489531v-77.371164H348.80886631zM348.80886631 456.21548701h207.731017V378.84432201000004H348.80886631zM991.58469231 786.56284001a46.589088 46.589088 0 0 1-46.3971 45.43716H194.38651731a46.589088 46.589088 0 0 1-44.7972-46.71708v-766.672083a46.589088 46.589088 0 0 1 46.3971-45.373164h234.993313v80.63496H229.32833331v697.556403h682.261359v-209.650897h79.995V786.56284001z m-610.329854-22.3986h383.016061M611.96041931 149.80263701a213.362665 213.362665 0 1 1 213.362665 213.298669 213.234673 213.234673 0 0 1-213.362665-213.298669zM825.32308431 281.37841401000003l42.749328-86.586588 95.610024-13.951129-69.179676-67.387788 16.31898-95.226048-85.498656 44.925192-85.498657-44.925192 16.31898 95.226048-69.179676 67.387788 95.610024 13.951129 42.749329 86.586588z"  horiz-adv-x="1170" />
      
      <glyph glyph-name="zhengji" unicode="&#59423;" d="M233.99999999 462.01875v-311.68125l284.175-160.25625 359.15625 191.86875V472.70625L571.61249999 652.2 233.99999999 462.01875zM382.44374999 208.33124999999995l-68.23125 34.14375V492.5625h68.23125v-284.23125zM484.03124999 395.25h68.2875v-391.5H484.03124999zM518.17499999 765.7125a23.2875 23.2875 0 0 0 11.25-3.0375l301.05-173.86875a22.8375 22.8375 0 0 0 11.25-19.74375v-347.625a22.8375 22.8375 0 0 0-11.25-19.74375l-301.05-173.86875a23.00625 23.00625 0 0 0-22.8375 0l-300.88125 173.86875a22.8375 22.8375 0 0 0-11.25 19.74375V569.0625a22.8375 22.8375 0 0 0 11.25 19.74375l301.21875 173.86875a23.2875 23.2875 0 0 0 11.25 3.0375m0 68.2875a90.9 90.9 0 0 1-45.5625-12.20625L171.56249999 647.98125a91.18125 91.18125 0 0 1-45.5625-78.75v-347.625a91.18125 91.18125 0 0 1 45.5625-78.75l301.05-173.8125a91.125 91.125 0 0 1 91.125 0l301.05 173.8125a91.18125 91.18125 0 0 1 45.5625 78.75V569.0625a91.18125 91.18125 0 0 1-45.5625 78.75L563.73749999 821.79375A90.9 90.9 0 0 1 518.17499999 834zM161.71874999 557.88l33.643125 59.4225 339.699375-192.346875-33.643125-59.4225zM501.08624999 424.820625l349.936875 202.764375L885.26249999 568.5 535.32562499 365.735625z"  horiz-adv-x="1050" />
      
      <glyph glyph-name="keti" unicode="&#59876;" d="M352.95901161 640.0746794v-358.81240342h222.57731337l98.77325274-98.71700361h242.6582083l-70.31125635 380.52451934H585.04240711L496.9002163 640.0746794H352.95901161zM681.846945 208.36356533000003h-67.49880644l-56.24900508 501.9661213h67.49880644l56.24900508-501.9661213zM848.79399188 726.41690273H644.21636034L568.73019539 801.90306768A40.33053633 40.33053633 0 0 1 537.62449559 815.23408125H156.03124471v-843.73507617h66.03633193v266.45153731h333.3316043l75.48616494-75.48616495a40.33053633 40.33053633 0 0 1 31.38694542-13.33101445h248.67685107a41.9617582 41.9617582 0 0 1 44.38046513 44.38046514l-61.87390576 488.52260947a41.9617582 41.9617582 0 0 1-44.66170986 44.38046513z m17.4371915-510.9659622H679.76573104L590.94855252 304.26811905H222.06757664V748.9165046h297.7822336l88.81717851-88.8171794h223.81479141l56.24900508-444.64838467z"  horiz-adv-x="1092" />
      
      <glyph glyph-name="renwudanhao" unicode="&#59877;" d="M328.28881564 669.2581710100001h537.566402v-537.566402h-537.566402zM1021.68547764-37.89763099000004H574.92940064a38.3976 38.3976 0 0 0-38.397601 38.3976V289.05793401000005a38.3976 38.3976 0 0 0 38.397601 38.3976h446.692081a38.3976 38.3976 0 0 0 38.3976-38.3976v-288.685957a38.3976 38.3976 0 0 0-38.3976-38.3976zM731.07964064 70.76757700999997l-25.5984-92.858196 93.050184 25.854384 152.630461 152.63046-67.1958 67.259797-152.886445-152.886445zM913.53223764 253.25857100999997l32.177189 32.177189 67.240597-67.246997-32.170789-32.170789zM1012.91802564 786.56284001a46.589088 46.589088 0 0 1-46.3971 45.43716H215.71985064a46.589088 46.589088 0 0 1-44.7972-46.71708v-766.672083a46.589088 46.589088 0 0 1 46.3971-45.373164h234.993313v80.63496H250.66166664v697.556403h682.261359v-209.650897h79.995V786.56284001z m-610.329854-22.3986h383.016061M370.14219964 599.8865070100001H785.66822864v-77.371164H370.14219964zM370.14219964 456.21548701h207.731017V378.84432201000004H370.14219964z"  horiz-adv-x="1205" />
      
      <glyph glyph-name="guidangwenjian" unicode="&#59878;" d="M830.85999998 521.90000001c-64.74-39.6-159.78-64.86-265.92-64.86-102 0-193.38 23.1-257.64 60v-431.58H928.59999998V521.90000001zM378.63999998 347.06000000999995h392.82v-63.6H378.63999998zM378.63999998 223.40000000999999h392.82v-63.6H378.63999998zM889.71999998 752.00000001v-721.92H243.99999998V752.00000001h645.72m27.9 72H216.09999998A44.1 44.1 0 0 1 171.99999998 779.96000001v-777.84a44.1 44.1 0 0 1 44.1-44.04h701.52a44.1 44.1 0 0 1 44.1 44.04V779.96000001A44.1 44.1 0 0 1 917.61999998 824.00000001zM566.85999998 541.0400000100001c-163.8 0-312.78 91.5-379.56 233.1l65.22 30.9c54.96-116.64 178.38-192 314.34-192 138.66 0 263.04 77.34 316.8 197.04l66-29.46c-65.52-145.5-215.7-239.58-382.8-239.58zM544.29999998 672.44000001h48V466.40000001h-48zM568.47999998 685.4600000099999m-48.66 0a48.66 48.66 0 1 1 97.32 0 48.66 48.66 0 1 1-97.32 0ZM568.47999998 466.46000001m-48.66 0a48.66 48.66 0 1 1 97.32 0 48.66 48.66 0 1 1-97.32 0Z"  horiz-adv-x="1135" />
      
      <glyph glyph-name="mokuai" unicode="&#59879;" d="M271.00416666 575.7819444500001h564.58125v-481.78125001H271.00416666zM207.77916666 704.36944445l289.85625-1.63125001-0.56250001-66.88124999-299.92499999 1.575 0.50625-252.28125001-0.50625001-354.71249999h607.05l-0.5625 305.71875h66.88125001l0.61874999-295.5375a77.0625 77.0625 0 0 0-76.89374999-77.23125001H207.32916666A77.0625 77.0625 0 0 0 130.26666666 40.45069444000001l0.50625 189.95625001V303.02569444000005l-0.39375 286.87500001V626.74444445A77.00625001 77.00625001 0 0 0 207.10416666 704.36944445zM530.82291665 702.90694445v-702.675h-67.5V702.90694445zM870.96666666 370.07569445v-67.50000001H172.84791665v67.5zM976.37916666 811.24444445v-358.65H617.72916666V811.24444445z m-66.88125-66.88125h-225.00000001v-225.00000001h225.00000001v225.00000001zM764.48541666 664.48819445h65.13749999v-65.13750001h-65.1375z"  horiz-adv-x="1087" />
      
      <glyph glyph-name="tuzhibianhao" unicode="&#59880;" d="M372.94244736 443.17452612h492.6128994v-456.55845117H372.94244736zM374.51736825 683.91250355a33.74831425 33.74831425 0 0 1-33.74831425-33.74831425v-416.90418135l-1.34993321 0.84370869-1.29368496 0.73121308c-2.36238223 1.40617969-4.78101094 2.69986552-7.25588789 3.9935505l-1.74366298 0.89995517c-2.75611201 1.34993232-5.62471875 2.64361817-8.43707901 3.82480928l-1.74366211 0.67496572c-2.53112344 1.01244903-5.11849424 1.96865156-7.7621124 2.81236026l-1.57492178 0.56247187c-2.98110146 0.95620254-5.96220205 1.79991035-8.99955088 2.53112344l-2.13739277 0.50622451c-2.81235937 0.61871924-5.62471875 1.23743847-8.94330352 1.74366299h-0.73121308c-3.14984268 0.44997715-6.35593271 0.84370781-9.56202276 1.12494375h-2.30613486c-3.31858388 0-6.58092128 0.39373066-9.95575254 0.39373066A141.23669677 141.23669677 0 0 1 126.18601962 113.34099681999999a33.74831425 33.74831425 0 1 1 67.1591461 0 74.13379805 74.13379805 0 0 0 73.79631474 73.90880947 75.93370839 75.93370839 0 0 0 21.88015752-3.37483212 73.74006739 73.74006739 0 0 0-21.88015752-144.21779737 33.74831425 33.74831425 0 0 1 0-67.4966294 141.29294414 141.29294414 0 0 1 140.95546084 141.18044942V650.33293051a33.74831425 33.74831425 0 0 1-33.57957305 33.57957304zM857.73698788 791.28839222a33.74831425 33.74831425 0 0 1-33.74831513-33.74831513v-73.62757354H404.04714345a140.95546084 140.95546084 0 0 1-277.86112383-33.74831425v-536.82319248a141.46168536 141.46168536 0 0 1 140.95546084-140.89921348h590.59550742a141.46168536 141.46168536 0 0 1 140.95546084 140.89921348V650.33293051A141.40543886 141.40543886 0 0 1 857.73698788 791.28839222zM193.34516572 650.33293051a73.79631474 73.79631474 0 1 0 147.59262948 0 33.74831425 33.74831425 0 0 1 33.74831427-33.74831426h483.05087841a33.74831425 33.74831425 0 0 1 33.74831425 33.74831426V715.52342504a74.69626992 74.69626992 0 0 0 40.21674171-65.19049453v-536.99193369a74.07755068 74.07755068 0 0 0-73.96505596-73.68382002h-590.59550742a74.07755068 74.07755068 0 0 0-73.79631474 73.68382002zM857.73698788 5.908861659999957m-33.74831513 0a33.74831425 33.74831425 0 1 1 67.49662938 0 33.74831425 33.74831425 0 1 1-67.49662938 0ZM857.73698788 254.40895237999996v-67.4966294a73.51507881 73.51507881 0 0 0 0-146.97391024v-67.4966294a141.0117082 141.0117082 0 0 1 0 281.96716904zM267.14148046 186.91232298A73.51507881 73.51507881 0 1 0 193.68264902 113.34099681999999a73.57132617 73.57132617 0 0 0 73.45883144 73.57132617m0 67.49662939a141.0117082 141.0117082 0 1 1 140.95546084-141.06795556 140.95546084 140.95546084 0 0 1-140.95546084 141.06795556zM891.31656093 250.35915452999996V757.20259379a33.74831425 33.74831425 0 0 1-67.1591461 0v-536.42946182a33.74831425 33.74831425 0 0 1 33.74831426-33.74831514 74.13379805 74.13379805 0 0 0 73.62757353-73.68382002 33.74831425 33.74831425 0 1 1 67.1591461 0 141.85541602 141.85541602 0 0 1-107.37588779 137.01815772zM269.95383983 39.6571768h587.78314805v-67.4966294H269.95383983z"  horiz-adv-x="1125" />
      
      <glyph glyph-name="fenji" unicode="&#59881;" d="M531.65354403 689.8875L230.54729403 516.46875001v-338.23125001l301.10625-176.9625 311.175 175.21875001V519.9L531.65354403 689.8875zM531.65354403-26.625a68.45625001 68.45625001 0 0 0-34.25625 9.225L156.12854403 177.11249999999995a68.11875001 68.11875001 0 0 0-24.75 93.20625001l0.3375 0.61874999a88.59375001 88.59375001 0 0 1 8.325-6.1875l4.10625-2.53125001 341.55-194.68124999a88.2 88.2 0 0 1 16.25625-7.425l29.7-17.2125 29.75625 17.2125a97.0875 97.0875 0 0 1 11.98125 5.11875001l3.9375 2.13749998 341.60625 194.68125001a91.18125001 91.18125001 0 0 1 12.65625 8.8875 68.11875001 68.11875001 0 0 0 0.3375-69.075l-0.5625-0.95625001a67.89375001 67.89375001 0 0 0-24.13125-23.79374999L565.90979403-17.399999999999977a68.45625001 68.45625001 0 0 0-34.25625-9.225zM531.65354403 142.91250000000002a67.89375001 67.89375001 0 0 0-34.25625 9.225L156.12854403 346.65a68.23125001 68.23125001 0 0 0-24.75 93.20625001l0.3375 0.56249998a99.675 99.675 0 0 1 8.325-6.1875l4.10625-2.475 341.55-194.68124999a92.41875001 92.41875001 0 0 1 16.25625-7.425l29.7-17.2125 29.7 17.26875001a86.85 86.85 0 0 1 12.0375 5.11874999l3.99375 2.19375001 341.55 194.79374999a86.68125001 86.68125001 0 0 1 12.65625 8.8875 68.23125001 68.23125001 0 0 0-24.35625-93.825L565.90979403 152.13750000000005a67.89375001 67.89375001 0 0 0-34.25625-9.225zM531.65354403 308.56874999a68.45625001 68.45625001 0 0 0-34.25625 9.22500002L156.12854403 512.30625001a68.175 68.175 0 0 0 0 118.12499998L497.39729403 824.775a68.23125001 68.23125001 0 0 0 68.5125 0l341.325-194.5125a68.23125001 68.23125001 0 0 0 0-118.125L565.90979403 317.79374999000004a68.45625001 68.45625001 0 0 0-34.25625-9.225zM192.57854403 571.3125l339.075-193.21875001 339.075 193.21875001-335.925 191.25h-6.24375z"  horiz-adv-x="1070" />
      
      <glyph glyph-name="xiangmubianhao" unicode="&#59882;" d="M408.98835309 557.12282716a31.94800311 31.94800311 0 0 1-30.82307345-23.7360164l-121.77363954-454.41534902a31.94800311 31.94800311 0 0 1 22.49859375-39.37253907l195.4002876-52.36547783a32.84794687 32.84794687 0 0 1 8.32447969-1.0686832 31.89175664 31.89175664 0 0 1 30.82307343 23.67976992l121.82988603 454.64033497a31.94800311 31.94800311 0 0 1-22.49859375 39.37253992l-195.51278057 52.14049102a32.17298906 32.17298906 0 0 1-8.26823319 1.12492969zM746.63599966 703.0262085100001h67.49578212v-742.3411043h-67.49578212zM869.87204781 703.0262085100001h67.49578125v-742.3411043h-67.49578125zM373.77805387 739.24894445l252.54671572-67.49578214L454.9979773 33.13057696999999l-252.60296221 67.49578125L373.77805387 739.24894445M359.37895387 811.24444445a47.58452578 47.58452578 0 0 1-45.95337863-35.2665457L131.91817018 99.05145665999999a47.58452578 47.58452578 0 0 1 33.74789062-58.38385079L456.68537184-37.290022359999966a47.07830742 47.07830742 0 0 1 12.37422656-1.63114803 47.58452578 47.58452578 0 0 1 45.89713124 35.2665457l181.45115949 676.98268857a47.58452578 47.58452578 0 0 1-33.74789063 58.27135869L371.69693394 809.55704992a46.68458203 46.68458203 0 0 1-12.31798007 1.68739453zM388.67477652 646.37365099m32.59795957-8.73459756l109.47481259-29.33368769q32.59795957-8.73459667 23.86336289-41.33255626l0 0q-8.73459667-32.59795957-41.33255624-23.863362l-109.47481347 29.33368769q-32.59795957 8.73459667-23.86336202 41.33255624l0 0q8.73459667 32.59795957 41.33255625 23.86336202ZM353.82774946 516.55043781m32.59795959-8.73459668l109.47481347-29.3336877q32.59795957-8.73459667 23.863362-41.33255626l0 0q-8.73459667-32.59795957-41.33255624-23.86336288l-109.47481347 29.33368858q-32.59795957 8.73459667-23.86336201 41.33255536l0 0q8.73459667 32.59795957 41.33255625 23.8633629Z"  horiz-adv-x="1083" />
      
      <glyph glyph-name="gaojian" unicode="&#59875;" d="M710.72-96H402.08c-58.56 0-106.08 47.04-106.08 104.64V615.36c0 57.6 47.52 104.64 106.08 104.64h411.36c58.56 0 106.08-47.04 106.08-104.64v-424.32c0-24.48-20.16-44.16-44.64-44.16h-102.72c-9.12 0-17.28-7.68-17.28-16.32v-181.92c0.48-24.96-19.68-44.64-44.16-44.64zM402.08 672C369.92 672 344 646.56 344 615.36v-606.24c0-31.2 25.92-56.64 58.08-56.64h305.28v178.08c0 35.52 29.28 64.32 65.28 64.32H872V615.36c0 31.2-25.92 56.64-58.08 56.64H402.08zM704.576-53.53920000000005l166.7664 244.7472 39.6672-27.0288-166.7664-244.752zM813.92 490.08H402.08c-13.44 0-24 10.56-24 24s10.56 24 24 24h411.36c13.44 0 24-10.56 24-24s-10.56-24-23.52-24zM813.92 368.64H402.08c-13.44 0-24 10.56-24 24s10.56 24 24 24h411.36c13.44 0 24-10.56 24-24s-10.56-24-23.52-24zM813.92 247.67999999999995H402.08c-13.44 0-24 10.56-24 24s10.56 24 24 24h411.36c13.44 0 24-10.56 24-24s-10.56-24-23.52-24zM649.28 126.24000000000001H402.08c-13.44 0-24 10.56-24 24s10.56 24 24 24h246.72c13.44 0 24-10.56 24-24s-10.56-24-23.52-24zM321.44 48H234.08c-58.56 0-106.08 47.04-106.08 104.64V759.36C128 816.96 175.52 864 234.08 864h411.36C704.48 864 752 816.96 752 759.36v-58.08h-48V759.36c0 31.2-25.92 56.64-58.08 56.64H234.08C201.92 816 176 790.56 176 759.36v-606.24c0-31.2 25.92-56.64 58.08-56.64h87.36V48z"  horiz-adv-x="1024" />
      
      <glyph glyph-name="jicengbaomigongzuorenyuanxinzeng" unicode="&#59869;" d="M481.14374786-51.07635029000005a51.24101396 51.24101396 0 0 0-21.96043507 5.38384922l-3.11696454 1.369575c-79.4826044 35.23114864-145.83617578 72.02077998-186.78176016 103.80437666C171.43078115 134.76087568000003 115.27818682 244.23246094 115.27818682 359.70184219v242.27317969a95.58692315 95.58692315 0 0 0 57.00267597 89.02240664l265.41428291 132.70714189a101.11245205 101.11245205 0 0 0 88.88072696 0l265.69764404-132.84882158a96.48423193 96.48423193 0 0 0 54.73579218-88.88072695v-242.27317969a355.23954492 355.23954492 0 0 0-7.8868661-74.33489004l-0.85008077-3.96704619a14.16802237 14.16802237 0 0 0-27.62764365 6.28115625l0.8028545 3.73091221a328.17862178 328.17862178 0 0 1 7.27291845 68.47877461V601.97502187a68.52600088 68.52600088 0 0 1-38.72592774 63.37828652L513.87187872 798.3910377a72.4458208 72.4458208 0 0 1-63.28383224 0l-266.35881796-133.17940898A66.77861133 66.77861133 0 0 1 143.61423067 601.97502187v-242.27317968c0-106.59075381 51.94941503-207.79765928 142.95534521-277.92937002 39.24542198-30.27234112 103.52101552-65.83407715 180.97287011-100.16791699 2.40856347-1.08621474 3.91981992-1.74738955 4.2976336-1.98352354a23.61337031 23.61337031 0 0 1 9.44534795-2.36133721A20.96867286 20.96867286 0 0 1 488.36943916-20.80400917999998l3.06973828 1.08621563 3.35309853 1.46402842 6.98955733 3.06973828c21.20480684 9.44534795 41.89011943 19.12682988 61.39476298 28.94999237a14.16802237 14.16802237 0 0 0 12.70399395-25.31353359c-19.97691152-10.01206933-41.08726494-19.97691152-62.7171126-29.56393916l-7.08401073-3.11696543-3.30587227-1.46402841-1.70016241-0.66117481-3.1641917-1.1334419a47.22674063 47.22674063 0 0 0-16.76549267-3.58923251zM748.11651347 226.94747314999995a132.23487393 132.23487393 0 1 0-132.23487392-132.23487393 132.47100791 132.47100791 0 0 0 132.23487393 132.23487393m-1e-8 28.33604472a160.57091865 160.57091865 0 1 1 160.57091866-160.57091865 160.57091865 160.57091865 0 0 1-160.57091865 160.57091865zM826.41844971 77.42761230999997h-155.84824424a14.16802237 14.16802237 0 0 0 0 28.33604384h155.84824424a14.16802237 14.16802237 0 0 0 0-28.33604385zM748.49432715-0.4965102600000364a14.16802237 14.16802237 0 0 0-14.16802148 14.16802237v155.84824424a14.16802237 14.16802237 0 0 0 28.33604384 0v-155.84824424a14.16802237 14.16802237 0 0 0-14.16802236-14.16802237zM481.8993752 639.52028144c-59.93073369 0-84.58309248-12.13727256-90.86424874-16.05709248a31.64191612 31.64191612 0 0 1-14.49860976-35.2783749 336.53775498 336.53775498 0 0 1 14.49860976-41.08726494 184.60932979 184.60932979 0 0 1 18.41842882-32.49199776 66.87306474 66.87306474 0 0 1 17.99338798-17.23775976 29.28057891 29.28057891 0 0 1-1.93629638-5.47830176c-0.42504082-1.98352354-11.75945888-48.17127568-21.53539336-98.27884775-5.90334258-29.80007315-10.20097617-54.83024648-12.56231339-74.05152979-4.72267441-36.4118168-2.73915088-50.48538575 1.55848273-60.68636191 7.08401074-15.63205078 21.15757969-32.11418408 43.87364208-49.30471758 14.87642344-11.38164434 28.33604473-19.59909785 28.33604473-19.97691153a30.65015479 30.65015479 0 0 1 16.48213242-4.7226744 30.27234112 30.27234112 0 0 1 17.1905335 5.10048808c0.42504082 0.37781367 13.31794072 8.59526719 27.81655048 20.35472608 21.53539424 17.23776065 35.65618945 33.05871826 42.50406622 47.22674062a62.38652432 62.38652432 0 0 1 5.10048808 30.55570137 258.75531299 258.75531299 0 0 1-2.3613372 30.93351504c-2.36133721 19.5518707-6.6589708 44.25145576-12.51508624 74.38211631-9.8231625 50.15479834-21.15757969 96.72036504-21.53539336 98.70388857a73.34312871 73.34312871 0 0 1-3.16419169 8.21745351A89.73080771 89.73080771 0 0 1 550.42537607 517.5808362299999a213.70100185 213.70100185 0 0 1 17.19053438 30.93351504c9.8231625 20.3547252 17.66280146 39.52878222 18.04061514 40.33163672a30.98074219 30.98074219 0 0 1-0.37781455 24.27454511A30.31956738 30.31956738 0 0 1 568.65489805 629.69711895c-5.85611542 2.36133721-29.3750332 9.8231625-86.51938887 9.8231625z m0-122.78952597a225.27155391 225.27155391 0 0 0-28.33604385 3.1641917c-27.06092227 4.29763359-46.2349793 76.36563984-46.2349793 76.36563984s19.17405703 11.33441807 74.42934346 11.33441719 74.75993086-7.41459815 74.75993086-7.41459814-29.3750332-75.56278536-46.18775303-79.10479073a124.44246211 124.44246211 0 0 0-28.57217783-4.34485986z m0.37781454-300.73988584s-48.54908935 28.99721865-59.50569375 54.8302456S457.19979013 484.04985088 457.19979013 484.04985088h50.91042657s45.43212481-189.14309737 33.67266591-213.03982793-59.50569375-54.83024648-59.50569287-54.83024649z"  horiz-adv-x="1024" />
      
      <glyph glyph-name="gongsizuzhijigourenyuantianjia" unicode="&#59870;" d="M891.28080283 238.68187265999995a137.50954893 137.50954893 0 1 0-137.50954892-137.50954893 137.75510215 137.75510215 0 0 0 137.50954892 137.50954893m0 29.46633223a166.97588115 166.97588115 0 1 1 166.97588204-166.97588116 166.97588115 166.97588115 0 0 1-166.97588204 166.97588115zM972.80432158 83.19786122999994h-162.06482549a14.73316612 14.73316612 0 0 0 0 29.46633135h162.06482549a14.73316612 14.73316612 0 1 0 0-29.46633135zM906.70151709 179.01255029000004v-162.06482549a14.73316612 14.73316612 0 0 0-29.46633222 1e-8v162.06482548a14.73316612 14.73316612 0 0 0 29.46633222 0zM698.22721777-10.259522169999968H76.73316612a14.73316612 14.73316612 0 0 0 0 29.46633223h621.49405165a14.73316612 14.73316612 0 0 0 0-29.46633223zM585.86227227 632.64673183h-333.9517623a14.73316612 14.73316612 0 0 0-1e-8 29.46633135h333.95176231a14.73316612 14.73316612 0 0 0 0-29.46633134zM585.86227227 507.90592588h-333.9517623a14.73316612 14.73316612 0 1 0-1e-8 29.46633222h333.95176231a14.73316612 14.73316612 0 0 0 0-29.46633222zM585.86227227 383.21423145000006h-333.9517623a14.73316612 14.73316612 0 0 0-1e-8 29.46633134h333.95176231a14.73316612 14.73316612 0 0 0 0-29.46633134zM585.86227227 258.57164677000003h-333.9517623a14.73316612 14.73316612 0 0 0-1e-8 29.46633224h333.95176231a14.73316612 14.73316612 0 0 0 0-29.46633224zM585.86227227 133.87995234000005h-333.9517623a14.73316612 14.73316612 0 1 0-1e-8 29.46633135h333.95176231a14.73316612 14.73316612 0 1 0 0-29.46633135zM664.88115254-10.259522169999968a14.73316612 14.73316612 0 0 0-14.73316611 14.73316611V772.85736094A31.67630683 31.67630683 0 0 1 618.47167959 804.53366778H212.57295664a31.67630683 31.67630683 0 0 1-31.67630684-31.67630684v-768.383717a14.73316612 14.73316612 0 0 0-29.46633222 0V772.85736094A61.19174971 61.19174971 0 0 0 212.57295664 834h405.89872295a61.24086035 61.24086035 0 0 0 61.14263906-61.14263906v-768.383717a14.73316612 14.73316612 0 0 0-14.73316612-14.73316611zM664.68470997-10.259522169999968a14.73316612 14.73316612 0 0 0-14.73316612 14.73316611V662.11306318h248.84317441a61.24086035 61.24086035 0 0 0 61.19174883-61.14263906v-285.67608838a14.73316612 14.73316612 0 1 0-29.46633134 1e-8V600.87220371a31.72541748 31.72541748 0 0 1-31.72541749 31.77452813h-219.37684219v-628.17308789a14.73316612 14.73316612 0 0 0-14.7331661-14.73316612z"  horiz-adv-x="1133" />
      
      <glyph glyph-name="jicengbaomizuzhirenyuanzhuxiao" unicode="&#59871;" d="M481.14374786-51.07635029000005a51.24101396 51.24101396 0 0 0-21.96043507 5.38384922l-3.11696454 1.369575c-79.4826044 35.23114864-145.83617578 72.02077998-186.78176016 103.80437666C171.43078115 134.76087568000003 115.27818682 244.23246094 115.27818682 359.70184219v242.27317969a95.58692315 95.58692315 0 0 0 57.00267597 89.02240664l265.41428291 132.70714189a101.11245205 101.11245205 0 0 0 88.88072696 0l265.69764404-132.84882158a96.48423193 96.48423193 0 0 0 54.73579218-88.88072695v-242.27317969a355.71181201 355.71181201 0 0 0-7.8868661-74.38211719c-0.28336026-1.36957588-0.61394766-2.69192461-0.89730791-4.06149961a14.16802237 14.16802237 0 0 0-27.62764278 6.28115625c0.28336026 1.22789531 0.51949424 2.45579063 0.80285449 3.68368594a328.17862178 328.17862178 0 0 1 7.27291758 68.47877461v242.27317969a68.52600088 68.52600088 0 0 1-38.72592685 63.37828651L513.87187872 798.3910377a72.4458208 72.4458208 0 0 1-63.28383224 0l-266.35881796-133.17940898A66.77861133 66.77861133 0 0 1 143.61423067 601.97502187v-242.27317968c0-106.59075381 51.94941503-207.79765928 142.95534521-277.92937002 39.24542198-30.27234112 103.52101552-65.83407715 180.97287011-100.16791699 2.40856347-1.08621474 3.91981992-1.74738955 4.2976336-1.98352354a23.61337031 23.61337031 0 0 1 9.44534795-2.36133721A20.96867286 20.96867286 0 0 1 488.36943916-20.80400917999998l3.06973828 1.08621563 3.35309853 1.46402842 6.98955733 3.06973828c21.20480684 9.44534795 41.89011943 19.12682988 61.39476298 28.94999237a14.16802237 14.16802237 0 0 0 12.70399395-25.31353359c-19.97691152-10.0592956-41.08726494-19.97691152-62.7171126-29.56393916l-7.08401073-3.11696543-3.30587227-1.46402841-1.70016241-0.66117481-3.1641917-1.1334419a47.22674063 47.22674063 0 0 0-16.76549267-3.58923251zM748.11651347 226.94747314999995a132.23487393 132.23487393 0 1 0-132.23487392-132.23487393 132.47100791 132.47100791 0 0 0 132.23487393 132.23487393m-1e-8 28.33604472a160.57091865 160.57091865 0 1 1 160.57091866-160.57091865 160.57091865 160.57091865 0 0 1-160.57091865 160.57091865zM826.41844971 77.42761230999997h-155.84824424a14.16802237 14.16802237 0 0 0 0 28.33604384h155.84824424a14.16802237 14.16802237 0 0 0 0-28.33604385zM535.59617979 463.69512481H414.45958994a26.96646885 26.96646885 0 0 0-26.91924257 26.96646972V584.17054072a26.96646885 26.96646885 0 0 0 26.91924257 26.96646973H535.59617979a26.96646885 26.96646885 0 0 0 26.91924258-26.96646972v-93.5089462a26.96646885 26.96646885 0 0 0-26.91924258-26.96646973z m-119.90869453 28.33604472h118.68079922V582.80096572H415.87639209zM388.81546894 222.08311904000004H265.74258271a26.06916094 26.06916094 0 0 0-26.02193378 26.06916094v95.30356289a26.02193379 26.02193379 0 0 0 26.02193378 26.02193467h123.07288624a26.06916094 26.06916094 0 0 0 26.06916094-26.02193467v-95.30356289a26.06916094 26.06916094 0 0 0-26.06916094-26.06916094z m-120.75877616 28.33604473h118.49189326v90.72256904H268.05669278zM599.30505283 222.08311904000004h-38.06475293a27.86377675 27.86377675 0 0 0-27.86377675 27.86377676v90.91147676a28.66663125 28.66663125 0 0 0 28.61940498 28.61940497h120.56986934a25.97470752 25.97470752 0 0 0 25.97470751-25.92748125v-50.76874599h-28.33604472v48.36018252h-118.06685245l-0.28336025-90.72256904h37.78139267zM618.57356328 355.6403417h-28.33604385v45.47935195h-231.41103047v-45.47935195h-28.33604472V403.19766972a26.35252119 26.35252119 0 0 0 26.30529492 26.25806866H592.26826924a26.35252119 26.35252119 0 0 0 26.30529404-26.25806866zM459.93894102 477.86314717h28.33604473v-62.57543115h-28.33604473z"  horiz-adv-x="1024" />
      
      </font>
</defs>
</svg>
